<?xml version="1.0" encoding="UTF-8"?>
<svg id="_レイヤー_2" data-name="レイヤー 2" xmlns="http://www.w3.org/2000/svg" viewBox="0 0 1254.71 158.88">
  <defs>
    <style>
      .cls-1 {
        fill: #b3b3b3;
      }

      .cls-1, .cls-2 {
        stroke-width: 0px;
      }

      .cls-2 {
        fill: #fff;
      }
    </style>
  </defs>
  <g id="_レイヤー_1-2" data-name="レイヤー 1">
    <g>
      <path class="cls-1" d="m513.03,53.5c.5.41,1.19,5.81,1.73,8.33.54,1.17,1.08,2.53,1.62,4.06.45,1.08.81,2.3,1.08,3.65.27,1.35.41,2.75.41,4.2,0,1.35.27,2.21.81,2.57.54.36,1.58.63,3.11.81.81,0,1.58.05,2.3.14.72.09,1.49.27,2.3.54-.9.36-1.78.63-2.64.81-.86.18-1.69.36-2.5.54-1.9.36-3.41.75-4.53,1.15-1.13.41-2.1,1.29-2.91,2.64-.63,1.26-.7,2.48-.2,3.65.49,1.17,1.42,2.17,2.77,2.98,1.35.81,2.66,1.35,3.93,1.62.81.27,1.62.59,2.44.95.36.18.65.27.88.27s.47.09.74.27c1.08.27,1.71.54,1.9.81.18.27,0,.54-.54.81l-.81.41c-.36,0-.81-.09-1.35-.27-.54-.18-1.22-.36-2.03-.54-.99-.27-1.74-.43-2.23-.47-.5-.04-1.2-.2-2.1-.47-.18.09-.32.18-.41.27-.09.09-.23.18-.41.27-.09.09-.16.14-.2.14s-.11.05-.2.13c-.09.09-.16.2-.2.34-.05.14-.11.29-.2.47-.18.36-.29.61-.34.74-.05.14-.2.38-.47.75v.13c-.18,0-.45.09-.81.27-.09,0-.18.02-.27.07-.09.05-.16.07-.2.07-.05,0-.2.05-.47.14-.54-.27-1.08-.5-1.62-.68-.09-.09-.18-.16-.27-.2-.09-.04-.18-.16-.27-.34-.09-.09-.16-.16-.2-.2-.05-.04-.11-.11-.2-.2,0-.09-.02-.13-.07-.13s-.07-.04-.07-.14c-.09-.09-.14-.18-.14-.27s-.05-.14-.14-.14c-.72-.63-1.4-.99-2.03-1.08-.63-.09-1.22-.09-1.76,0h-.41c-.18.27-.43.47-.74.61-.32.14-.66.29-1.02.47-.81.36-1.65.32-2.5-.13-.86-.45-1.65-1.4-2.37-2.84-1.17-1.62-1.81-2.75-1.89-3.38-.09-.63.22-1.67.95-3.11l.41-.95c.09-.54.54-1.04,1.35-1.49.9-.72,1.4-1.35,1.49-1.89-1.17-.18-2.05-.29-2.64-.34-.59-.04-1.51-.16-2.77-.34-.18-.09-.34-.16-.47-.2-.14-.04-.25-.11-.34-.2-.18-.09-.29-.16-.34-.2-.05-.04-.16-.11-.34-.2-.09,0-.16-.02-.2-.07-.05-.04-.11-.07-.2-.07-.45,0-.79-.02-1.01-.07-.23-.04-.11-.07-.56-.07l-.31-.13c0-.27.07-.52.2-.75.14-.22.42-.36.51-.64.27,0,.36-.11.64-.11h.14l.54.14c.27.09.49.18.68.27.81.09,1.42.18,1.83.27.41.09,1.02.18,1.83.27,1.26.18,2.19.32,2.77.41.59.09,1.47.18,2.64.27,1.62.45,2.68.16,3.18-.88.49-1.04.79-2.77.88-5.21,0-1.44.09-2.68.27-3.72.18-1.04.5-1.83.95-2.37.81-.81,1.49-2.03,2.03-3.65.27-.72.45-1.49.54-2.3.36-2.62.62-7.66,1.12-7.25Zm12.01-12.65h1.08c1.98,0,3.18.2,3.59.61.41.41-.25.83-1.96,1.29-.27-.09-.54-.11-.81-.07-.27.05-.5.07-.68.07h-1.62c-.63-.09-1.13-.14-1.49-.14s-.81-.04-1.35-.13l-1.22-.14c-.36,0-.61.02-.74.07-.14.05-.38.07-.74.07h-1.49c-.72,0-1.29.18-1.69.54-.41.36-.7.95-.88,1.76-.18.63-.36,1.71-.54,3.25-.36,1.81-.92,7.22-1.46,7.49-.54.27-.71-4.73-.71-6.27.09-.99.14-1.89.14-2.71v-1.35c.63-1.62.34-2.66-.88-3.11-1.22-.45-2.77-.5-4.67-.14h-.27c-.63.09-1.58.14-2.84.14h-2.17c-.72.09-1.35.23-1.9.41-.54.18-1.08.32-1.62.41-.18.18-.41.32-.68.41-.27.09-.59.14-.95.14-.27,0-.45-.02-.54-.07-.09-.04-.27-.07-.54-.07-.18-.09-.36-.13-.54-.13-.36-.18-.5-.41-.41-.68.09-.27.45-.5,1.08-.68,1.44-.36,2.71-.7,3.79-1.02,1.08-.32,1.53-.88,1.35-1.69,0-.99-.09-1.85-.27-2.57-.18-.72-.41-1.4-.68-2.03-.45-1.17-.68-2.19-.68-3.05s.41-1.87,1.22-3.04c.63-.72,1.22-.95,1.76-.68l.14.13.14.14c.36.36.68.7.95,1.02.27.32.54.56.81.74.54.36,1.02.56,1.42.61.41.05.88.02,1.42-.07.27,0,.54-.02.81-.07.27-.04.5-.16.68-.34.63-.36,1.08-.9,1.35-1.62.27-.72.36-1.44.27-2.17v-1.49c0-.54-.09-1.22-.27-2.03,0-.27-.02-.45-.07-.54-.05-.09-.07-.27-.07-.54v-.47c0-.13-.05-.29-.14-.47v-.95c.09-.27.22-.34.41-.2.18.14.45.43.81.88.18.27.34.5.47.68.14.18.29.41.47.68.09.27.16.45.2.54.04.09.11.27.2.54.27.54.45.95.54,1.22.09.27.27.68.54,1.22.18.72.14,1.62-.14,2.71l-.27.41c.18.63.54,1.15,1.08,1.56.54.41,1.4.16,2.57-.74.81-.27,1.58-.5,2.3-.68.9-.45,1.58-.68,2.03-.68s1.04.36,1.76,1.08c.72.81.65,1.49-.2,2.03-.86.54-2.14.99-3.86,1.35-1.17.36-1.81.59-1.9.68-.09.99-.23,1.99-.41,2.98.09.18.16.29.2.34.04.05.11.16.2.34.27.36.45.66.54.88.09.23.27.52.54.88.63.27,1.06.5,1.29.68.22.18.61.41,1.15.68.81.36,1.58.77,2.3,1.22h2.71Zm-18.07,43.51c-.95-1.4-2.28-2.37-3.99-2.91-.36.18-.68.41-.95.68-.27.27-.54.54-.81.81-.72.63-1.33,1.4-1.83,2.3-.5.9-.79,1.94-.88,3.11.27.54.56.95.88,1.22.32.27.61.45.88.54.45.09.81.25,1.08.47.27.23.45.74.54,1.56.18.45.43.63.74.54.31-.09.52-.36.61-.81-.09-.18-.2-.41-.34-.68s-.29-.5-.47-.68c-.09-.36-.25-.7-.47-1.01-.23-.32-.29-.61-.2-.88.9-1.17,1.53-1.8,1.9-1.89.36-.09.86.09,1.49.54.18.18.43.41.74.68.31.27.7.5,1.15.68.9-1.44.88-2.86-.07-4.26Zm1.89-51.23c-.68-.81-1.38-1.08-2.1-.81-1.44.45-2.55.45-3.32,0-.77-.45-1.2-1.4-1.29-2.84-.63-.9-1.08-1.15-1.35-.75-.27.41-.36,1.17-.27,2.3.09,1.13.18,2.14.27,3.05,0,.27.02.45.07.54.04.09.07.23.07.41-.36,2.08,0,3.36,1.08,3.86,1.08.5,2.39.34,3.93-.47,1.53-.81,2.62-1.85,3.25-3.11.45-.63.34-1.35-.34-2.17Zm2.77,31.74c-.72,1.13-1.44,3-2.17,5.62l-.41,1.49c-.45,1.26-.16,2.5.88,3.72,1.04,1.22,2.28,1.74,3.72,1.56,1.17-.27,1.96-.72,2.37-1.35.41-.63.7-1.53.88-2.71,0-.36.02-.68.07-.95.04-.27.11-.54.2-.81-.18-.99-.68-2.44-1.49-4.33-.18-.36-.36-.7-.54-1.02-.18-.32-.36-.65-.54-1.01-1.26-1.26-2.26-1.33-2.98-.2Z"/>
      <path class="cls-2" d="m961.79,53.5c.5.41,1.19,5.81,1.73,8.33.54,1.17,1.08,2.53,1.62,4.06.45,1.08.81,2.3,1.08,3.65.27,1.35.41,2.75.41,4.2,0,1.35.27,2.21.81,2.57.54.36,1.58.63,3.11.81.81,0,1.58.05,2.3.14.72.09,1.49.27,2.3.54-.9.36-1.78.63-2.64.81-.86.18-1.69.36-2.5.54-1.9.36-3.41.75-4.53,1.15-1.13.41-2.1,1.29-2.91,2.64-.63,1.26-.7,2.48-.2,3.65.49,1.17,1.42,2.17,2.77,2.98,1.35.81,2.66,1.35,3.93,1.62.81.27,1.62.59,2.44.95.36.18.65.27.88.27s.47.09.74.27c1.08.27,1.71.54,1.9.81.18.27,0,.54-.54.81l-.81.41c-.36,0-.81-.09-1.35-.27-.54-.18-1.22-.36-2.03-.54-.99-.27-1.74-.43-2.23-.47-.5-.04-1.2-.2-2.1-.47-.18.09-.32.18-.41.27-.09.09-.23.18-.41.27-.09.09-.16.14-.2.14s-.11.05-.2.13c-.09.09-.16.2-.2.34-.05.14-.11.29-.2.47-.18.36-.29.61-.34.74-.05.14-.2.38-.47.75v.13c-.18,0-.45.09-.81.27-.09,0-.18.02-.27.07-.09.05-.16.07-.2.07-.05,0-.2.05-.47.14-.54-.27-1.08-.5-1.62-.68-.09-.09-.18-.16-.27-.2-.09-.04-.18-.16-.27-.34-.09-.09-.16-.16-.2-.2-.05-.04-.11-.11-.2-.2,0-.09-.02-.13-.07-.13s-.07-.04-.07-.14c-.09-.09-.14-.18-.14-.27s-.05-.14-.14-.14c-.72-.63-1.4-.99-2.03-1.08-.63-.09-1.22-.09-1.76,0h-.41c-.18.27-.43.47-.74.61-.32.14-.66.29-1.02.47-.81.36-1.65.32-2.5-.13-.86-.45-1.65-1.4-2.37-2.84-1.17-1.62-1.81-2.75-1.89-3.38-.09-.63.22-1.67.95-3.11l.41-.95c.09-.54.54-1.04,1.35-1.49.9-.72,1.4-1.35,1.49-1.89-1.17-.18-2.05-.29-2.64-.34-.59-.04-1.51-.16-2.77-.34-.18-.09-.34-.16-.47-.2-.14-.04-.25-.11-.34-.2-.18-.09-.29-.16-.34-.2-.05-.04-.16-.11-.34-.2-.09,0-.16-.02-.2-.07-.05-.04-.11-.07-.2-.07-.45,0-.79-.02-1.01-.07-.23-.04-.56-.07-1.02-.07l.14-.13c0-.27.07-.52.2-.75.14-.22.25-.47.34-.74h.95l.54.14c.27.09.49.18.68.27.81.09,1.42.18,1.83.27.41.09,1.02.18,1.83.27,1.26.18,2.19.32,2.77.41.59.09,1.47.18,2.64.27,1.62.45,2.68.16,3.18-.88.49-1.04.79-2.77.88-5.21,0-1.44.09-2.68.27-3.72.18-1.04.5-1.83.95-2.37.81-.81,1.49-2.03,2.03-3.65.27-.72.45-1.49.54-2.3.36-2.62.62-7.66,1.12-7.25Zm12.01-12.65h1.08c1.98,0,3.18.2,3.59.61.41.41-.25.83-1.96,1.29-.27-.09-.54-.11-.81-.07-.27.05-.5.07-.68.07h-1.62c-.63-.09-1.13-.14-1.49-.14s-.81-.04-1.35-.13l-1.22-.14c-.36,0-.61.02-.74.07-.14.05-.38.07-.74.07h-1.49c-.72,0-1.29.18-1.69.54-.41.36-.7.95-.88,1.76-.18.63-.36,1.71-.54,3.25-.36,1.81-.92,7.22-1.46,7.49-.54.27-.71-4.73-.71-6.27.09-.99.14-1.89.14-2.71v-1.35c.63-1.62.34-2.66-.88-3.11-1.22-.45-2.77-.5-4.67-.14h-.27c-.63.09-1.58.14-2.84.14h-2.17c-.72.09-1.35.23-1.9.41-.54.18-1.08.32-1.62.41-.18.18-.41.32-.68.41-.27.09-.59.14-.95.14-.27,0-.45-.02-.54-.07-.09-.04-.27-.07-.54-.07-.18-.09-.36-.13-.54-.13-.36-.18-.5-.41-.41-.68.09-.27.45-.5,1.08-.68,1.44-.36,2.71-.7,3.79-1.02,1.08-.32,1.53-.88,1.35-1.69,0-.99-.09-1.85-.27-2.57-.18-.72-.41-1.4-.68-2.03-.45-1.17-.68-2.19-.68-3.05s.41-1.87,1.22-3.04c.63-.72,1.22-.95,1.76-.68l.14.13.14.14c.36.36.68.7.95,1.02.27.32.54.56.81.74.54.36,1.02.56,1.42.61.41.05.88.02,1.42-.07.27,0,.54-.02.81-.07.27-.04.5-.16.68-.34.63-.36,1.08-.9,1.35-1.62.27-.72.36-1.44.27-2.17v-1.49c0-.54-.09-1.22-.27-2.03,0-.27-.02-.45-.07-.54-.05-.09-.07-.27-.07-.54v-.47c0-.13-.05-.29-.14-.47v-.95c.09-.27.22-.34.41-.2.18.14.45.43.81.88.18.27.34.5.47.68.14.18.29.41.47.68.09.27.16.45.2.54.04.09.11.27.2.54.27.54.45.95.54,1.22.09.27.27.68.54,1.22.18.72.14,1.62-.14,2.71l-.27.41c.18.63.54,1.15,1.08,1.56.54.41,1.4.16,2.57-.74.81-.27,1.58-.5,2.3-.68.9-.45,1.58-.68,2.03-.68s1.04.36,1.76,1.08c.72.81.65,1.49-.2,2.03-.86.54-2.14.99-3.86,1.35-1.17.36-1.81.59-1.9.68-.09.99-.23,1.99-.41,2.98.09.18.16.29.2.34.04.05.11.16.2.34.27.36.45.66.54.88.09.23.27.52.54.88.63.27,1.06.5,1.29.68.22.18.61.41,1.15.68.81.36,1.58.77,2.3,1.22h2.71Zm-18.07,43.51c-.95-1.4-2.28-2.37-3.99-2.91-.36.18-.68.41-.95.68-.27.27-.54.54-.81.81-.72.63-1.33,1.4-1.83,2.3-.5.9-.79,1.94-.88,3.11.27.54.56.95.88,1.22.32.27.61.45.88.54.45.09.81.25,1.08.47.27.23.45.74.54,1.56.18.45.43.63.74.54.31-.09.52-.36.61-.81-.09-.18-.2-.41-.34-.68s-.29-.5-.47-.68c-.09-.36-.25-.7-.47-1.01-.23-.32-.29-.61-.2-.88.9-1.17,1.53-1.8,1.9-1.89.36-.09.86.09,1.49.54.18.18.43.41.74.68.31.27.7.5,1.15.68.9-1.44.88-2.86-.07-4.26Zm1.89-51.23c-.68-.81-1.38-1.08-2.1-.81-1.44.45-2.55.45-3.32,0-.77-.45-1.2-1.4-1.29-2.84-.63-.9-1.08-1.15-1.35-.75-.27.41-.36,1.17-.27,2.3.09,1.13.18,2.14.27,3.05,0,.27.02.45.07.54.04.09.07.23.07.41-.36,2.08,0,3.36,1.08,3.86,1.08.5,2.39.34,3.93-.47,1.53-.81,2.62-1.85,3.25-3.11.45-.63.34-1.35-.34-2.17Zm2.77,31.74c-.72,1.13-1.44,3-2.17,5.62l-.41,1.49c-.45,1.26-.16,2.5.88,3.72,1.04,1.22,2.28,1.74,3.72,1.56,1.17-.27,1.96-.72,2.37-1.35.41-.63.7-1.53.88-2.71,0-.36.02-.68.07-.95.04-.27.11-.54.2-.81-.18-.99-.68-2.44-1.49-4.33-.18-.36-.36-.7-.54-1.02-.18-.32-.36-.65-.54-1.01-1.26-1.26-2.26-1.33-2.98-.2Z"/>
      <g>
        <rect class="cls-1" x="369.51" y="46.38" width="67.44" height=".5"/>
        <polygon class="cls-1" points="431.09 52.65 430.74 52.3 436.6 46.44 430.74 40.58 431.09 40.23 437.3 46.44 431.09 52.65"/>
      </g>
      <polygon class="cls-1" points="66.63 129.6 60.78 123.74 54.92 129.6 54.56 129.24 60.78 123.03 66.99 129.24 66.63 129.6"/>
      <g>
        <rect class="cls-1" x="818.49" y="46.38" width="67.44" height=".5"/>
        <polygon class="cls-1" points="880.07 52.65 879.72 52.3 885.57 46.44 879.72 40.58 880.07 40.23 886.28 46.44 880.07 52.65"/>
      </g>
      <g>
        <path class="cls-1" d="m433.94,145.21l-.32.74c-.59-.18-1.16-.4-1.7-.68-.55-.28-1.02-.58-1.42-.89-.4-.31-.73-.61-.99-.88-.46.48-.96.9-1.48,1.25-.52.35-1.01.62-1.45.8-.44.19-.85.32-1.23.41-.09-.21-.21-.44-.36-.7.77-.18,1.5-.46,2.21-.86.71-.4,1.33-.87,1.85-1.41-.45-.55-.84-1.17-1.17-1.86-.33-.69-.59-1.45-.78-2.26h-1.13c-.38,0-.64,0-.79.02v-.71c.15,0,.42.01.79.01h3.1v-1.75l-.02-.3c.19,0,.44.01.73.03-.01.1-.02.19-.02.26v1.75h3.17c.37,0,.63,0,.78-.01v.71c-.15-.01-.41-.02-.78-.02h-1.17c-.08.37-.19.79-.35,1.28-.15.48-.36.98-.61,1.48-.26.51-.54.96-.84,1.35.24.24.56.51.94.79.38.29.84.56,1.37.81s1.09.47,1.67.64Zm-2.86-6.36h-3.31c.16.7.38,1.36.68,1.96.29.6.64,1.15,1.04,1.63.27-.35.52-.75.75-1.19.23-.44.41-.87.54-1.29.13-.42.23-.79.3-1.12Z"/>
        <path class="cls-1" d="m442.89,141.93c.38,0,.65,0,.81-.01v.73c-.16-.01-.43-.02-.81-.02h-2.85c.11.51.16,1.01.16,1.52,0,.42-.04.76-.11,1.02-.08.25-.21.44-.4.57-.19.13-.47.19-.86.19-.32,0-.66-.02-1.02-.06-.02-.08-.1-.33-.25-.75.43.07.81.11,1.14.11.23,0,.4-.03.51-.09.11-.06.19-.17.24-.34s.07-.41.07-.74c0-.52-.05-1-.15-1.44h-3.59c-.38,0-.64,0-.8.02v-.73c.16,0,.43.01.8.01h3.38c-.07-.17-.15-.33-.24-.48-.1-.15-.19-.29-.29-.4l.56-.3.03.04.24.32c.28-.17.57-.38.88-.62.31-.25.57-.48.78-.7h-3.86c-.24,0-.42,0-.54.01v-.67c.12,0,.3.01.54.01h4.28l.08-.1c.07.04.16.12.27.21.12.1.22.2.31.29l-.15.07c-.28.36-.64.72-1.07,1.08s-.86.66-1.27.9l.14.33h3.05Zm-7.57-2.15c.01-.1.02-.2.02-.29v-1.84c0-.08,0-.18-.02-.3h3.65v-1.04l-.02-.27c.08,0,.2,0,.37.02.17.01.29.02.35.03-.01.09-.02.17-.02.24v1.03h3.75c0,.06,0,.16,0,.3v2.12s-.65,0-.65,0v-1.76h-6.75v1.76h-.67Z"/>
        <path class="cls-1" d="m451.95,144.11l.06.85c-.38.1-.82.19-1.32.25-.5.07-.96.1-1.35.1-2.07,0-3.1-.71-3.1-2.15,0-.28.06-.55.17-.82.12-.27.28-.52.48-.77.21-.25.45-.48.74-.69.28-.22.57-.41.86-.58-.09-.42-.19-.87-.32-1.35-.13-.48-.25-.91-.37-1.27-.12-.36-.22-.65-.31-.86l.75-.24c.15.47.3,1.03.48,1.68.17.65.31,1.22.41,1.72.61-.3,1.28-.56,2.01-.79.24-.07.4-.14.49-.21l.21.84c-.05,0-.12.02-.2.04-.08.02-.15.04-.21.05-.22.06-.45.13-.7.21s-.52.18-.81.3-.58.26-.88.41-.61.34-.93.57-.6.49-.83.8c-.23.3-.34.61-.34.93,0,.17.02.33.07.47.05.15.12.27.22.38.1.11.23.2.39.28s.35.14.57.19.43.08.63.08c.2,0,.34.01.42.01.46,0,.96-.04,1.5-.14.54-.09.95-.19,1.22-.29Z"/>
        <path class="cls-1" d="m462.12,142.62s.03.07.06.14c.03.07.09.19.18.35s.14.26.15.29c-.3.39-.64.73-1,1.01-.37.29-.7.5-1.01.66s-.61.26-.9.33c-.29.07-.59.11-.88.11-.31,0-.59-.05-.85-.15-.26-.1-.48-.25-.67-.46-.19-.21-.34-.46-.44-.78s-.15-.68-.15-1.1c0-.36.03-1.28.1-2.76.07-1.48.1-2.42.1-2.8,0-.23,0-.41-.02-.54l.84.1c-.03.14-.06.42-.09.84,0,.16-.02.53-.05,1.1-.03.57-.06,1.11-.08,1.61s-.05.97-.06,1.4c-.02.44-.02.77-.02,1,0,.56.13,1,.38,1.31s.6.46,1.03.46c.25,0,.51-.04.78-.12.27-.08.52-.18.76-.31s.47-.28.68-.45c.21-.17.43-.35.63-.57.21-.21.39-.44.55-.67Z"/>
        <path class="cls-1" d="m468.65,142.24c0,.18.02.38.07.61.05.22.13.43.26.63s.29.37.49.52c.19.15.42.27.67.37.25.1.51.18.77.23.26.05.49.09.7.12-.03.04-.06.13-.11.26-.05.13-.1.29-.15.48-.53-.07-1.01-.19-1.43-.36-.42-.17-.77-.38-1.06-.65-.29-.26-.51-.58-.66-.94s-.22-.75-.22-1.18c0-.45.09-.92.27-1.38.18-.46.43-.89.73-1.26s.6-.68.88-.9c.28-.22.52-.39.71-.52-.96.08-1.96.18-3.01.29-1.05.11-1.78.2-2.19.26l-.07-.85c3.64-.28,6.09-.47,7.35-.57l.07.7-.67.04c-.53.21-.99.45-1.39.74s-.74.61-1.03.95-.52.72-.7,1.14c-.18.42-.27.84-.27,1.28Z"/>
        <path class="cls-1" d="m474.91,138.07h2.62c.18,0,.33,0,.44-.01v.64c-.11,0-.25-.01-.44-.01h-3.07s0-.63,0-.63h.45Zm2.76,4.55v.32s0,2.67,0,2.67v.32s-.57,0-.57,0v-.56h-1.66v.56h-.59l.02-.32v-2.67c0-.08,0-.19-.02-.32h2.84Zm-.41-5.51h-2.35s0-.63,0-.63h.4s1.95.01,1.95.01c.17,0,.3,0,.4-.01v.64h-.4Zm-.12,3.09h-2.17s0-.59,0-.59h.38s1.79.01,1.79.01h.39s0,.59,0,.59h-.39Zm-2.17,1.51v-.61h.38s1.79.01,1.79.01h.39s0,.59,0,.59h-.39s-1.79-.01-1.79-.01h-.38Zm.45,3.09h1.66v-1.61h-1.66v1.61Zm4.31-2.96v-.22s.61.03.61.03v.18c0,.54-.05,1.04-.13,1.49-.08.45-.2.84-.36,1.19s-.36.64-.6.88c-.24.25-.53.44-.84.58l-.43-.59c.57-.21,1.01-.6,1.31-1.19.3-.59.45-1.37.45-2.34Zm.74-4.09h-1.64c-.24,0-.42,0-.54.02v-.65c.12.02.3.02.54.02h1.64v-.67l-.02-.31c.07,0,.18,0,.33.02.15.01.25.02.31.03-.01.09-.02.18-.02.26v.67h1.75c.24,0,.42,0,.54-.02v.65c-.12-.01-.3-.02-.54-.02h-1.75v1.03h1.99s0,.61,0,.61h-.5s-3.41-.01-3.41-.01h-.5s0-.61,0-.61h.5s1.31.01,1.31.01v-1.03Zm2.74,2.56v.26s0,1.41,0,1.41v.25s-.57,0-.57,0v-1.35h-3.6v1.35h-.6c.01-.1.02-.19.02-.25v-1.41c0-.07,0-.16-.02-.26h4.79Zm-.27,3.07s.1.07.21.15.19.13.24.17c.06.04.1.07.13.09,0,.42-.02.74-.05.97-.03.23-.07.41-.13.54-.06.14-.13.25-.22.33-.09.08-.2.14-.34.18-.14.04-.3.05-.49.05-.21,0-.4-.01-.58-.03-.17-.02-.3-.07-.38-.14-.03-.03-.06-.08-.1-.16-.04-.08-.06-.17-.07-.29,0-.12-.01-.22-.01-.32v-3.3s.63.06.63.06c-.01.04-.02.09-.02.13v3.18c0,.1.04.17.12.22.09.02.24.02.44.02.23,0,.39-.08.47-.23.05-.11.09-.28.11-.52.02-.23.04-.6.04-1.1Z"/>
        <path class="cls-1" d="m490.19,138.46c.47.09.9.28,1.29.58s.7.67.91,1.13c.21.45.32.95.32,1.47,0,.45-.07.88-.21,1.3-.14.42-.36.8-.65,1.14-.29.34-.64.64-1.05.88-.41.25-.87.43-1.38.54-.2-.26-.38-.48-.53-.66.46-.07.89-.2,1.28-.39.39-.19.72-.42,1-.7.27-.28.48-.6.63-.96.14-.36.22-.75.22-1.16,0-.25-.03-.49-.09-.73-.06-.24-.15-.45-.26-.64-.11-.19-.25-.37-.43-.55-.18-.18-.38-.32-.6-.42-.22-.11-.44-.18-.63-.21-.21.6-.45,1.2-.73,1.8-.28.6-.57,1.13-.87,1.59.11.2.28.44.5.71-.09.07-.24.25-.47.53-.13-.18-.28-.41-.45-.68-.23.29-.47.54-.72.75-.25.21-.47.36-.67.45-.2.08-.36.13-.5.13-.35,0-.62-.15-.82-.45-.19-.3-.29-.73-.29-1.29,0-.45.09-.9.26-1.33.17-.43.38-.8.64-1.11.25-.31.5-.56.75-.75-.17-.71-.28-1.45-.36-2.22l.67-.13c.02.33.05.67.09,1.02.04.35.09.67.14.96.72-.41,1.51-.63,2.37-.65.17-.58.28-1.2.36-1.85l.68.19c-.01.1-.05.3-.1.58-.06.28-.15.66-.28,1.14Zm-4.05,5.17c.13,0,.28-.05.44-.14.16-.09.33-.23.51-.41.18-.18.37-.4.56-.67-.35-.73-.63-1.51-.85-2.32-.19.17-.37.38-.55.62-.18.25-.34.53-.46.85-.12.32-.18.63-.18.92,0,.37.05.66.14.85s.23.29.39.29Zm1.17-3.93c.07.29.14.57.23.85s.17.53.26.74c.09.22.17.4.24.56.24-.39.48-.82.71-1.3.23-.48.43-.97.6-1.49-.38.01-.74.08-1.08.19-.35.11-.66.26-.95.45Z"/>
        <path class="cls-1" d="m499.31,138.57c-.62.14-1.22.24-1.79.31-.24.79-.54,1.62-.91,2.47s-.73,1.6-1.09,2.22l-.7-.43c.36-.54.72-1.19,1.08-1.95s.65-1.51.88-2.25c-.11,0-.32.01-.63.02s-.67-.02-1.06-.06l.02-.73c.26.04.56.06.9.07.34,0,.66,0,.98-.02.11-.44.19-.83.23-1.18.03-.21.04-.37.04-.5l.8.17c-.03.06-.05.14-.08.24-.03.1-.05.18-.05.22-.07.39-.13.71-.2.97.61-.09,1.14-.19,1.56-.31l.03.74Zm.97,2.93l.07,1.65c.62.24,1.26.62,1.93,1.14l-.34.7c-.49-.45-1.01-.82-1.56-1.09,0,.24-.04.47-.11.69-.07.22-.18.41-.33.58s-.33.3-.55.4c-.22.1-.47.15-.76.15-.22,0-.46-.04-.72-.12s-.48-.2-.66-.37c-.18-.17-.31-.34-.37-.52-.07-.18-.1-.34-.1-.51,0-.19.04-.37.13-.53s.21-.31.37-.43c.16-.12.36-.21.58-.28.23-.07.48-.1.75-.1.38,0,.73.03,1.05.1l-.08-1.67c-.01-.26-.02-.48,0-.65,0-.17.03-.35.07-.53l.73.09c-.09.26-.12.69-.1,1.29Zm-1.7,3.57c.38,0,.67-.12.87-.35.2-.23.28-.58.26-1.03h0c-.38-.12-.74-.18-1.07-.18-.22,0-.42.02-.61.07-.19.05-.33.13-.43.24-.1.11-.15.24-.15.4,0,.24.11.45.33.61s.49.25.8.25Zm1.65-6.86c.34.09.78.27,1.31.53s.92.51,1.15.72l-.32.69c-.3-.29-.69-.55-1.17-.8-.48-.25-.9-.41-1.27-.5l.3-.65Z"/>
        <path class="cls-1" d="m507.05,144.93c-.27,0-.53-.08-.77-.25s-.46-.44-.65-.81-.35-.87-.46-1.49c-.11-.62-.17-1.36-.17-2.23,0-.18,0-.42.01-.73,0-.3.01-.67.02-1.1s.01-.69.01-.76l.78.14c-.03.14-.05.44-.08.9-.03.46-.04,1.01-.04,1.66s.04,1.26.11,1.76c.07.5.17.9.3,1.21.12.31.27.53.43.68.16.14.33.21.5.21.13,0,.25-.11.37-.33.11-.22.2-.49.26-.81.06-.32.1-.62.12-.88l.61.62c-.11.71-.27,1.26-.5,1.64-.22.38-.51.58-.85.58Zm4.89-1.86c-.03-.39-.1-.8-.21-1.25s-.26-.87-.44-1.28c-.18-.41-.38-.78-.6-1.12-.22-.33-.44-.59-.67-.78l.61-.41c.22.18.45.45.68.79.23.34.44.73.63,1.17.19.43.34.87.46,1.3.12.43.2.85.24,1.25l-.71.32Z"/>
        <path class="cls-1" d="m517,141.5l.06.73c-.13.08-.33.19-.6.33-.27.14-.59.31-.97.5s-.69.34-.94.45l-.37.2-.19-.74.4-.13c.24-.1.55-.24.91-.42v-3.07h-.74c-.17,0-.31,0-.41.01v-.67c.1,0,.23.01.41.01h.74v-2.2c0-.11,0-.23-.02-.36.18,0,.41.01.68.03-.01.12-.02.23-.02.33v2.2h1.04s0,.66,0,.66h-.39s-.65-.01-.65-.01v2.74c.42-.21.77-.41,1.05-.59Zm5.46-.4h-3.27c-.12.23-.27.5-.47.8h4v.23c-.02.88-.03,1.55-.06,2.02s-.09.82-.18,1.05c-.1.26-.28.45-.53.58-.26.13-.63.19-1.12.19-.07-.23-.15-.49-.26-.78.16.06.33.09.52.09.22,0,.4-.04.54-.11.13-.07.23-.18.29-.33.07-.17.11-.43.13-.79.02-.36.04-.89.04-1.61h-.64c-.17.48-.4.96-.7,1.45-.29.49-.62.93-.99,1.31-.37.38-.72.67-1.07.88-.02-.04-.07-.1-.16-.19-.09-.09-.2-.18-.32-.29.52-.28,1.02-.71,1.51-1.28.49-.58.87-1.2,1.14-1.89h-.91c-.18.34-.41.69-.67,1.03-.26.34-.56.67-.89.98-.33.31-.68.57-1.04.78-.02-.03-.06-.08-.12-.15-.06-.07-.12-.14-.17-.2-.06-.06-.1-.11-.13-.15.15-.08.33-.19.52-.32.2-.14.42-.31.66-.53.24-.22.47-.46.68-.71s.38-.49.51-.72h-.98c-.25.3-.51.58-.79.83-.28.25-.56.45-.84.61-.03-.05-.17-.22-.43-.51.42-.22.83-.54,1.25-.95.42-.41.75-.85,1-1.32h-.8c-.26,0-.46,0-.59.02v-.63c.13,0,.33.01.59.01h4.74c.27,0,.47,0,.59-.01v.63c-.12-.01-.32-.02-.59-.02Zm-4.58-1.32c.01-.12.02-.22.02-.31v-2.62c0-.08,0-.19-.02-.32h4.31v.32s0,2.62,0,2.62v.31s-4.3,0-4.3,0Zm3.68-2.73h-3.05v.85h3.05v-.85Zm-3.05,2.21h3.05v-.87h-3.05v.87Z"/>
        <path class="cls-1" d="m528.83,136.18c.41.78,1.02,1.56,1.84,2.35s1.6,1.38,2.36,1.76c-.22.34-.34.55-.38.63-.38-.2-.74-.43-1.08-.69-.35-.26-.68-.54-1-.85-.32-.3-.67-.68-1.05-1.13-.38-.45-.72-.93-1.02-1.45-.25.42-.52.81-.81,1.17-.29.36-.59.71-.91,1.03-.32.33-.7.67-1.14,1.02s-.9.66-1.37.92c-.07-.17-.21-.39-.4-.67.48-.25.96-.56,1.44-.94.48-.38.9-.77,1.29-1.17s.71-.8.97-1.18c.26-.39.47-.74.62-1.05l.71.17-.06.08Zm2.55,5.37v.37s0,3.66,0,3.66v.39s-.7,0-.7,0v-.63h-4.47v.63h-.72c.01-.15.02-.28.02-.39v-3.66c0-.1,0-.23-.02-.37h5.91Zm-5.19,3.11h4.47v-2.43h-4.47v2.43Zm4.33-4.37c-.11,0-.28-.01-.5-.01h-3.18c-.22,0-.38,0-.5.01v-.74c.11,0,.28.01.5.01h3.18c.22,0,.39,0,.5-.01v.74Z"/>
      </g>
      <polygon class="cls-1" points="852.58 158.88 60.53 158.88 60.53 123.9 61.03 123.9 61.03 158.38 852.08 158.38 852.22 55.36 852.72 55.36 852.58 158.88"/>
      <g>
        <path class="cls-2" d="m220.51,19.44c-.54,0-1.06-.11-1.54-.32s-.88-.5-1.18-.86l.84-.81c.26.29.56.5.88.65s.66.22,1,.22c.31,0,.58-.05.81-.15.23-.1.4-.24.52-.41.12-.17.18-.36.18-.57,0-.25-.07-.46-.21-.62-.14-.17-.33-.3-.55-.39s-.52-.21-.9-.33c-.5-.17-.9-.33-1.21-.48-.31-.15-.58-.39-.8-.69s-.33-.71-.33-1.21c0-.41.11-.79.32-1.11.21-.33.51-.58.9-.76.39-.18.83-.27,1.33-.27.46,0,.9.09,1.33.28.43.18.79.43,1.1.74l-.84.81c-.23-.22-.49-.39-.76-.51s-.55-.19-.83-.19-.52.04-.72.13-.36.21-.47.36c-.11.15-.16.32-.16.5,0,.24.07.44.21.6.14.16.33.29.55.38.22.09.52.2.9.32.5.17.9.33,1.21.49.31.16.58.39.8.7.22.31.33.72.33,1.23,0,.44-.11.83-.33,1.17-.22.35-.54.62-.94.82-.41.2-.88.3-1.42.3Z"/>
        <path class="cls-2" d="m226.68,19.33v-6.77h-2.34v-1.13h5.87v1.13h-2.35v6.77h-1.19Z"/>
        <path class="cls-2" d="m231.79,19.33v-7.9h4.91v1.13h-3.73v2.11h2.96v1.13h-2.96v2.41h3.84v1.13h-5.02Z"/>
        <path class="cls-2" d="m238.39,19.33v-7.9h2.54c.5,0,.95.11,1.35.34.41.23.72.53.95.92s.34.81.34,1.28-.12.89-.34,1.28-.55.69-.95.92c-.41.23-.86.34-1.35.34h-1.35v2.82h-1.19Zm2.6-3.95c.26,0,.49-.06.71-.19.22-.12.39-.3.51-.51.12-.22.19-.46.19-.71s-.06-.49-.19-.71c-.12-.22-.3-.39-.51-.51-.22-.12-.46-.19-.71-.19h-1.41v2.82h1.41Z"/>
        <path class="cls-2" d="m252.34,19.33v-1.13h1.86v-5.01c-.17.13-.43.23-.76.32s-.68.12-1.04.12v-1.13c.35-.01.66-.07.94-.17.28-.1.51-.22.69-.38.18-.15.32-.33.4-.52h.96v6.77h1.86v1.13h-4.91Z"/>
      </g>
      <g>
        <path class="cls-2" d="m133.98,46.81c.13.32.3.64.5.96.2.32.39.58.58.79.18.21.34.37.47.47-.14.24-.24.46-.31.65-.24-.23-.49-.54-.75-.94-.25-.4-.48-.83-.68-1.28.02.64.04,1.46.05,2.47.01,1.01.02,1.71.02,2.09l.02.44h-.69l.02-.44c0-.56,0-1.31.02-2.24s.03-1.64.04-2.13c-.21.69-.46,1.33-.76,1.93-.29.6-.59,1.07-.88,1.4-.01-.04-.05-.11-.1-.23s-.14-.26-.24-.44c.17-.18.35-.43.56-.75.21-.33.42-.74.65-1.24.22-.5.41-1.01.54-1.51h-1.15c-.21,0-.37,0-.49.01v-.67c.11,0,.27.01.49.01h1.33v-3.19l-.02-.32c.18,0,.41.01.66.03-.01.1-.02.2-.02.3v3.18h1.57s0,.66,0,.66h-.49s-.95-.01-.95-.01Zm-1.26-1.41l-.5.17c-.03-.13-.09-.39-.18-.79s-.23-.82-.4-1.29l.55-.14c.25.84.43,1.52.53,2.06Zm2.64-1.88c-.05.22-.12.48-.22.78-.09.3-.18.57-.27.81s-.16.43-.22.57l-.48-.24c.13-.29.27-.67.42-1.14.15-.47.23-.84.27-1.09l.54.22-.05.1Zm4.32,1.86h-1.7v2.19h1.8v.39s0,4.08,0,4.08v.38s-.63,0-.63,0v-.7h-2.65v.7h-.65l.02-.38v-4.08l-.02-.39h1.5v-4.55c0-.11,0-.22-.02-.34.18,0,.41.01.68.03-.01.12-.02.22-.02.32v1.68h2.08s0,.68,0,.68h-.38Zm-.54,5.69v-2.84h-2.65v2.84h2.65Z"/>
        <path class="cls-2" d="m149.18,43.43c.36,0,.62,0,.77-.01v.65c-.15,0-.41-.01-.77-.01h-1.67v.43c0,.13,0,.23,0,.29h-.67c0-.05.01-.15.01-.29v-.43h-2.35v.43c0,.13,0,.23.01.29h-.67c0-.05,0-.15,0-.29v-.43h-1.65c-.36,0-.62,0-.77.01v-.65c.15,0,.41.01.77.01h1.65v-.79c.3,0,.52.01.66.03,0,.05-.01.14-.01.25v.51h2.35v-.79c.3,0,.52.01.66.03,0,.05,0,.14,0,.25v.51h1.67Zm.27,1.87l-.02.48v6.16l.02.47h-.66v-.53h-6.08v.53h-.66c.01-.19.02-.35.02-.47v-6.16l-.02-.48h7.41Zm-6.74,5.97h6.08v-5.36h-6.08v5.36Zm3.57-2.73c.26.3.58.59.96.86.38.27.76.48,1.14.62-.16.31-.24.49-.26.54-.4-.16-.8-.4-1.18-.71s-.71-.67-.99-1.06c.02.6.03,1.22.03,1.85,0,.13,0,.23.01.3h-.55v-.3c0-.58.02-1.17.04-1.77-.27.35-.6.68-.98.98-.38.3-.76.54-1.14.71-.05-.11-.15-.28-.3-.52.18-.07.39-.17.64-.31.25-.14.51-.31.77-.53.26-.21.49-.43.67-.66h-1.45c-.23,0-.41,0-.52.01v-.56c.12,0,.29.01.52.01h1.74v-.84c-.73.04-1.32.07-1.78.07-.04-.1-.09-.27-.14-.53.51,0,1.03,0,1.56-.03.53-.03,1-.07,1.41-.13.4-.06.73-.12.98-.18l.27.5-.16.02c-.19.04-.44.08-.74.12s-.59.08-.86.11v.89h1.65c.23,0,.41,0,.52-.01v.56c-.12,0-.29-.01-.52-.01h-1.36Z"/>
        <path class="cls-2" d="m155.97,43.96c.2,0,.45.03.73.08.28.05.57.15.88.3s.58.33.84.57c.26.23.48.5.65.81.18.31.3.63.37.96s.1.63.1.89c0,.29-.02.56-.06.8-.04.24-.09.47-.16.69s-.17.46-.3.7c-.13.25-.32.51-.55.79-.23.28-.56.54-.97.81-.41.26-.89.47-1.45.62-.15-.2-.27-.35-.36-.46s-.16-.18-.2-.21c.34-.05.67-.14.99-.26.33-.12.63-.29.91-.5.28-.21.52-.45.73-.73.21-.28.38-.61.51-1,.13-.38.2-.79.2-1.24,0-.41-.07-.79-.21-1.15-.14-.36-.33-.66-.56-.92-.24-.26-.51-.46-.82-.61s-.63-.24-.95-.27c-.05.4-.14.85-.25,1.35-.11.49-.27,1.03-.46,1.61-.19.58-.43,1.12-.69,1.63-.27.51-.56.92-.88,1.22-.32.3-.64.46-.96.46-.22,0-.43-.05-.61-.15-.19-.1-.34-.25-.47-.45-.13-.2-.23-.45-.3-.75-.07-.3-.1-.65-.1-1.03,0-.46.08-.93.23-1.4.15-.47.37-.91.67-1.33.29-.41.64-.76,1.03-1.03s.8-.47,1.21-.59c.42-.12.83-.18,1.26-.18Zm-2.9,6.18c.09,0,.18-.03.27-.08.1-.05.19-.12.29-.22.1-.09.21-.22.32-.38.12-.16.25-.37.4-.63.15-.26.31-.62.48-1.06.17-.44.34-.95.49-1.52s.25-1.12.31-1.65c-.24.02-.52.07-.83.17-.31.1-.61.25-.9.46-.29.21-.57.48-.82.8-.25.33-.45.71-.61,1.14-.16.44-.23.86-.23,1.26,0,.55.07.97.22,1.27.15.29.35.44.6.44Z"/>
        <path class="cls-2" d="m163.17,47.29c.02.71.04,1.58.05,2.6s.02,1.71.02,2.07c0,.12,0,.26.02.44h-.67l.02-.44c0-.37,0-1.06.02-2.09.02-1.03.03-1.9.05-2.61-.19.67-.42,1.31-.68,1.9-.26.59-.52,1.06-.78,1.39-.06-.16-.17-.37-.32-.64.2-.24.42-.58.64-1.02.22-.44.42-.88.57-1.31.16-.43.28-.81.36-1.12h-.94c-.19,0-.33,0-.43.01v-.64c.1,0,.24.01.43.01h1.08v-1.71c-.38.15-.75.26-1.12.35-.03-.1-.11-.29-.24-.59.42-.08.89-.22,1.39-.42.51-.2.93-.4,1.26-.62l.41.52s-.08.03-.19.08c-.48.23-.78.38-.9.44v1.95h1.16s0,.63,0,.63h-.43s-.68-.01-.68-.01c.14.43.32.87.55,1.31.23.44.45.79.65,1.03-.16.26-.26.46-.32.59-.16-.22-.33-.52-.51-.9-.18-.38-.35-.78-.5-1.2Zm6.26-2.01h-1.95v.84h1.92c0,.07-.01.17-.01.31v2.79s-1.91,0-1.91,0v.87h1.68c.24,0,.42,0,.54-.01v.6c-.12-.01-.3-.02-.54-.02h-1.68v.92h1.92c.28,0,.48,0,.61-.01v.65c-.13,0-.34-.01-.61-.01h-4.84c-.27,0-.47,0-.6.01v-.65c.13,0,.33.01.6.01h2.33v-.92h-1.73c-.23,0-.41,0-.53.02v-.6c.12,0,.3.01.53.01h1.73v-.87h-1.89c.01-.13.02-.24.02-.32v-2.47c0-.07,0-.18-.02-.31h1.89v-.84h-1.99c-.26,0-.45,0-.58.02v-.63c.13,0,.32.01.58.01h1.99v-.95c-.61.07-1.26.11-1.95.13-.01-.04-.04-.12-.07-.23-.03-.11-.08-.23-.13-.37.75,0,1.53-.06,2.33-.15.8-.09,1.49-.21,2.06-.37l.38.53s-.11.01-.21.03c-.71.15-1.31.27-1.82.34v1.02h1.95c.26,0,.46,0,.58-.01v.63c-.13-.01-.32-.02-.58-.02Zm-2.53,1.32h-1.3v.83h1.3v-.83Zm-1.3,1.27v.87h1.3v-.87h-1.3Zm3.21-.44v-.83h-1.34v.83h1.34Zm-1.34,1.31h1.34v-.87h-1.34v.87Z"/>
        <path class="cls-2" d="m179.15,47.24c-.19.01-.39.05-.58.11-.4.12-.8.25-1.2.4s-.76.3-1.1.46c.01.23.02.62.02,1.16v.7s-.65.02-.65.02c.01-.34.02-.67.02-.99v-.57s-.12.07-.23.14c-.12.07-.28.19-.5.35s-.4.36-.56.59c-.16.23-.24.46-.24.7,0,.32.15.54.45.68.3.14.74.21,1.32.21.91,0,1.67-.08,2.29-.25l.06.84c-.32.05-.65.09-1,.12-.35.03-.79.04-1.32.04-.36,0-.69-.03-.99-.09s-.56-.15-.79-.28c-.22-.13-.4-.3-.52-.5-.13-.21-.19-.45-.19-.73,0-.31.09-.61.26-.89.17-.29.42-.56.74-.83s.72-.53,1.18-.78c-.04-.37-.13-.64-.27-.82-.14-.18-.37-.27-.68-.27-.15,0-.3.04-.47.11-.17.07-.34.19-.51.34-.17.15-.35.34-.53.56-.18.22-.48.61-.91,1.19l-.52-.59c.4-.4.82-.91,1.28-1.54.46-.63.84-1.26,1.14-1.87-.37,0-.73-.01-1.07-.03-.34-.02-.6-.05-.76-.08v-.79c.17.05.45.1.83.14.38.04.75.06,1.1.06h.21c.12-.32.2-.63.26-.92.03-.16.04-.28.03-.36l.79.08c-.05.13-.08.23-.09.29-.05.26-.15.56-.28.89,1.04-.04,1.81-.12,2.34-.24l.07.73c-.2.04-.48.08-.85.12-.37.03-.72.06-1.05.08-.33.02-.61.04-.82.04-.24.48-.53.98-.89,1.52.26-.17.53-.25.81-.25.17,0,.32.02.46.05s.27.09.39.17c.12.08.23.2.34.37.11.17.18.42.24.75.45-.22,1.17-.52,2.18-.89.15-.05.31-.13.5-.23l.28.83Z"/>
        <path class="cls-2" d="m181.42,43.26h3.43c.22,0,.39,0,.5-.01v.65c-.11,0-.28-.01-.5-.01h-.9v1.34h1.15l-.02.46v6.2l.02.45h-.56v-.67h-2.71v.67h-.56l.02-.45v-6.2l-.02-.46h1.13v-1.34h-1.46s0-.64,0-.64h.5Zm1.04,2.55h-.64v3.67h2.71v-1.25c-.09,0-.23.01-.44.01-.26,0-.44-.04-.51-.12-.08-.08-.12-.25-.12-.52v-1.79h-.59v.4c0,.59-.06,1.13-.19,1.59-.13.47-.29.83-.5,1.09-.03-.07-.08-.15-.14-.25-.06-.1-.12-.19-.16-.26.19-.26.33-.57.43-.95.1-.38.15-.84.15-1.39v-.23Zm-.64,5.28h2.71v-1.06h-2.71v1.06Zm1.64-5.86v-1.34h-.59v1.34h.59Zm1.07,2.48v-1.89h-.64v1.58c0,.1.01.18.03.23.02.05.12.08.28.08h.33Zm4.65,2.12c.28.23.48.37.58.44-.03.64-.13,1.08-.3,1.33-.17.25-.39.41-.68.49-.28.08-.62.12-1.02.12-.25,0-.48,0-.69-.02-.21-.01-.38-.03-.51-.06-.13-.03-.23-.07-.29-.12-.12-.08-.21-.2-.26-.36s-.08-.38-.08-.65c0-.13,0-1.54,0-4.22,0-.07,0-.12-.02-.17h2.62v-2.67h-2.78s0-.67,0-.67h.42s3.01.01,3.01.01v.38s0,3.82,0,3.82v.38s-.63,0-.63,0v-.6h-1.99v3.75c0,.14.02.24.07.31s.11.12.19.15c.16.03.5.04,1.01.04.19,0,.38-.02.56-.05.18-.03.35-.1.49-.21.11-.1.19-.26.24-.47.05-.21.07-.53.07-.95Z"/>
        <path class="cls-2" d="m198.73,45.72c.35,0,.6,0,.76-.01v.59c-.16,0-.41-.01-.76-.01h-3.24l-.15.66h2.91v.34s0,3.07,0,3.07v.35s-4.83,0-4.83,0c.01-.15.02-.26.02-.35v-3.07l-.02-.34h1.28l.17-.66h-3.13c-.35,0-.6,0-.75.01v-.59c.15,0,.4.01.75.01h3.26c.05-.23.1-.48.15-.75h-3.51c.01-.12.02-.21.02-.27v-1.47c0-.07,0-.16-.02-.27h7.32c0,.06,0,.15,0,.27v1.75s-3.15,0-3.15,0l-.17.75h3.12Zm-6.37,5.68h6.42c.33,0,.56,0,.7-.02v.67c-.14-.01-.37-.02-.7-.02h-6.42v.04l.02.41h-.65l.02-.41v-4.97c.15,0,.37.01.62.03,0,.07,0,.17,0,.31v3.96Zm-.11-6.93h1.63v-1.01h-1.63v1.01Zm5.38,3.6v-.65h-3.58v.65h3.58Zm-3.58.43v.63h3.58v-.63h-3.58Zm0,1.76h3.58v-.7h-3.58v.7Zm.41-6.8v1.01h1.62v-1.01h-1.62Zm3.86,0h-1.66v1.01h1.66v-1.01Z"/>
      </g>
      <path class="cls-1" d="m119.7,116.05H0V.03h119.7v116.02Zm-119.2-.5h118.7V.53H.5v115.02Z"/>
      <path class="cls-1" d="m354.69,31.07H119.09V0h235.61v31.07Zm-235.11-.5h234.61V.5H119.59v30.07Z"/>
      <path class="cls-1" d="m354.69,81.61H119.09V30.45h235.61v51.16Zm-235.11-.5h234.61V30.95H119.59v50.16Z"/>
      <circle class="cls-1" cx="59.85" cy="30.15" r=".93"/>
      <circle class="cls-1" cx="492.93" cy="43.03" r=".77"/>
      <circle class="cls-1" cx="527.47" cy="94.84" r=".77"/>
      <circle class="cls-1" cx="59.85" cy="84.75" r=".93"/>
      <path class="cls-1" d="m571.93,116.05h-119.7V.03h119.7v116.02Zm-119.2-.5h118.7V.53h-118.7v115.02Z"/>
      <path class="cls-1" d="m1019.6,116.05h-119.7V.03h119.7v116.02Zm-119.2-.5h118.7V.53h-118.7v115.02Z"/>
      <g>
        <path class="cls-2" d="m672.86,19.44c-.54,0-1.06-.11-1.54-.32s-.88-.5-1.18-.86l.84-.81c.26.29.56.5.88.65.32.15.66.22,1,.22.31,0,.58-.05.81-.15.23-.1.4-.24.52-.41.12-.17.18-.36.18-.57,0-.25-.07-.46-.21-.62-.14-.17-.33-.3-.55-.39-.22-.1-.52-.21-.9-.33-.5-.17-.9-.33-1.21-.48-.31-.15-.58-.39-.8-.69-.22-.31-.33-.71-.33-1.21,0-.41.11-.79.32-1.11.21-.33.51-.58.9-.76.39-.18.83-.27,1.33-.27.46,0,.9.09,1.33.28.43.18.79.43,1.1.74l-.84.81c-.23-.22-.49-.39-.76-.51-.28-.12-.55-.19-.83-.19s-.52.04-.72.13-.36.21-.47.36c-.11.15-.16.32-.16.5,0,.24.07.44.21.6.14.16.33.29.55.38.22.09.52.2.9.32.5.17.9.33,1.21.49s.58.39.8.7c.22.31.33.72.33,1.23,0,.44-.11.83-.33,1.17s-.54.62-.94.82c-.41.2-.88.3-1.42.3Z"/>
        <path class="cls-2" d="m679.02,19.33v-6.77h-2.34v-1.13h5.87v1.13h-2.35v6.77h-1.19Z"/>
        <path class="cls-2" d="m684.13,19.33v-7.9h4.91v1.13h-3.73v2.11h2.96v1.13h-2.96v2.41h3.84v1.13h-5.02Z"/>
        <path class="cls-2" d="m690.74,19.33v-7.9h2.54c.5,0,.95.11,1.35.34.41.23.72.53.95.92s.34.81.34,1.28-.12.89-.34,1.28-.55.69-.95.92c-.41.23-.86.34-1.35.34h-1.35v2.82h-1.19Zm2.6-3.95c.26,0,.49-.06.71-.19.22-.12.39-.3.51-.51.12-.22.19-.46.19-.71s-.06-.49-.19-.71c-.12-.22-.29-.39-.51-.51-.22-.12-.46-.19-.71-.19h-1.41v2.82h1.41Z"/>
        <path class="cls-2" d="m704.06,19.33c0-.62.11-1.17.34-1.62s.5-.83.82-1.12c.32-.29.73-.62,1.23-.97.37-.26.65-.48.86-.65.2-.17.37-.37.51-.59.14-.22.2-.47.2-.75,0-.23-.05-.42-.15-.59-.1-.17-.25-.3-.45-.4-.2-.09-.43-.14-.7-.14-.4,0-.72.11-.98.32s-.44.46-.56.75l-1.02-.45c.08-.28.23-.56.45-.83s.5-.51.86-.69.77-.28,1.25-.28.92.1,1.3.29c.38.2.67.47.88.82.21.35.31.75.31,1.2,0,.42-.09.79-.26,1.12-.17.32-.39.6-.64.82-.25.22-.59.48-1.02.78-.32.23-.57.42-.77.58-.2.16-.38.34-.55.55-.17.21-.31.44-.41.68h3.65v1.19h-5.14Z"/>
      </g>
      <g>
        <path class="cls-2" d="m586.65,43.39l-.02.5v6.48l.02.47h-.6v-.55h-1.34v1.04h-.62l.02-.51v-6.93l-.02-.51h2.56Zm-.6.65h-1.34v2.39h1.34v-2.39Zm-1.34,5.6h1.34v-2.58h-1.34v2.58Zm7.22-2.93h-4.32c-.26,0-.46,0-.58.01v-.69c.13.01.32.02.58.02h1.79v-1.46h-2.02s0-.64,0-.64h.51s1.5.01,1.5.01v-1.02l-.02-.32c.18,0,.41.01.68.03-.01.1-.02.2-.02.3v1.01h1.52c.24,0,.41,0,.52-.01v.65c-.11,0-.29-.01-.52-.01h-1.52v1.46h1.88c.26,0,.46,0,.57-.02v.69c-.12,0-.31-.01-.57-.01Zm.03,1.41c.26,0,.46,0,.57-.02v.68c-.12-.01-.31-.02-.57-.02h-.63v2.09l.02.58c0,.21-.05.37-.15.51-.1.13-.29.24-.56.31s-.7.11-1.27.11l-.36-.75c.1.01.24.03.42.04.18.02.34.02.48.02.23,0,.42-.02.57-.07.15-.05.22-.15.22-.31v-2.53h-3.02c-.26,0-.46,0-.57.02v-.68c.12.01.31.02.57.02h3.02v-.88l-.02-.31c.18,0,.41.01.68.03-.01.1-.02.2-.02.29v.87h.63Zm-3.91,1.04c.14.09.31.23.5.39.19.17.38.33.54.51.17.18.29.31.37.41l-.5.54c-.15-.21-.36-.45-.62-.71-.26-.26-.5-.48-.72-.67l.43-.47Z"/>
        <path class="cls-2" d="m594.79,46.62v5.22l.02.56h-.68l.02-.56v-8.59l-.02-.24h3.36v.35s0,2.92,0,2.92v.34s-2.68,0-2.68,0Zm2.05-3.03h-2.05v.94h2.05v-.94Zm-2.05,2.44h2.05v-.99h-2.05v.99Zm4.94,1.52v.34s0,2.98,0,2.98v.34s-2.74,0-2.74,0v.65h-.62l.02-.36v-3.6c0-.09,0-.21-.02-.35h3.38Zm-.62.56h-2.13v.96h2.13v-.96Zm-2.13,2.53h2.13v-1.02h-2.13v1.02Zm4.99-7.13v7.99c0,.23-.05.4-.17.52s-.3.2-.53.26-.55.08-.93.08c-.05-.12-.16-.37-.33-.75.26.04.5.05.7.05.23,0,.39-.03.48-.08.09-.05.13-.14.13-.25v-4.72h-2.7c.01-.13.02-.25.02-.34v-2.92c0-.09,0-.21-.02-.35h3.37l-.02.51Zm-.64.08h-2.05v.94h2.05v-.94Zm-2.05,2.44h2.05v-.99h-2.05v.99Z"/>
        <path class="cls-2" d="m611.69,47.24c-.19.01-.39.05-.58.11-.4.12-.8.25-1.2.4s-.76.3-1.1.46c.01.23.02.62.02,1.16v.7s-.65.02-.65.02c.01-.34.02-.67.02-.99v-.57s-.12.07-.23.14c-.12.07-.28.19-.5.35s-.4.36-.56.59c-.16.23-.24.46-.24.7,0,.32.15.54.45.68.3.14.74.21,1.32.21.91,0,1.67-.08,2.29-.25l.06.84c-.32.05-.65.09-1,.12-.35.03-.79.04-1.32.04-.36,0-.69-.03-.99-.09s-.56-.15-.79-.28c-.22-.13-.4-.3-.52-.5-.13-.21-.19-.45-.19-.73,0-.31.09-.61.26-.89.17-.29.42-.56.74-.83s.72-.53,1.18-.78c-.04-.37-.13-.64-.27-.82-.14-.18-.37-.27-.68-.27-.15,0-.3.04-.47.11-.17.07-.34.19-.51.34-.17.15-.35.34-.53.56-.18.22-.48.61-.91,1.19l-.52-.59c.4-.4.82-.91,1.28-1.54.46-.63.84-1.26,1.14-1.87-.37,0-.73-.01-1.07-.03-.34-.02-.6-.05-.76-.08v-.79c.17.05.45.1.83.14.38.04.75.06,1.1.06h.21c.12-.32.2-.63.26-.92.03-.16.04-.28.03-.36l.79.08c-.05.13-.08.23-.09.29-.05.26-.15.56-.28.89,1.04-.04,1.81-.12,2.34-.24l.07.73c-.2.04-.48.08-.85.12-.37.03-.72.06-1.05.08-.33.02-.61.04-.82.04-.24.48-.53.98-.89,1.52.26-.17.53-.25.81-.25.17,0,.32.02.46.05s.27.09.39.17c.12.08.23.2.34.37.11.17.18.42.24.75.45-.22,1.17-.52,2.18-.89.15-.05.31-.13.5-.23l.28.83Z"/>
        <path class="cls-2" d="m621.39,49.06c.37,0,.63,0,.79-.02v.69c-.16-.01-.42-.02-.79-.02h-3.23v2.7s-.69,0-.69,0v-.42s0-2.28,0-2.28h-3.19c-.38,0-.64,0-.79.02v-.69c.15.01.42.02.79.02h3.19v-1.43h-2.81c.01-.15.02-.27.02-.37v-3.71l-.02-.37h6.29v.37s0,3.71,0,3.71v.37s-2.78,0-2.78,0v1.43h3.23Zm-1.1-5.22h-4.95v1.26h4.95v-1.26Zm-4.95,1.89v1.24h4.95v-1.24h-4.95Z"/>
        <path class="cls-2" d="m629.1,44.95c.47.09.9.28,1.29.58s.7.67.91,1.13c.21.45.32.95.32,1.47,0,.45-.07.88-.21,1.3s-.36.8-.65,1.14-.64.64-1.05.88c-.41.25-.87.43-1.38.54-.2-.26-.38-.48-.53-.66.46-.07.89-.2,1.28-.39.39-.19.72-.42,1-.7s.48-.6.63-.96c.15-.36.22-.75.22-1.16,0-.25-.03-.49-.09-.73-.06-.24-.15-.45-.26-.64-.11-.19-.25-.37-.43-.55s-.38-.32-.6-.42c-.22-.11-.44-.18-.63-.21-.2.6-.45,1.2-.73,1.8s-.57,1.13-.87,1.59c.11.2.28.44.5.71-.09.07-.24.25-.47.53-.13-.18-.28-.41-.45-.68-.23.29-.47.54-.72.75-.25.21-.47.36-.67.45-.2.08-.36.13-.5.13-.35,0-.62-.15-.82-.45-.19-.3-.29-.73-.29-1.29,0-.45.09-.9.26-1.33.17-.43.38-.8.64-1.11.25-.31.5-.56.75-.75-.17-.71-.28-1.45-.36-2.22l.67-.13c.02.33.05.67.09,1.02.04.35.09.67.14.96.72-.41,1.51-.63,2.37-.65.17-.58.28-1.2.36-1.85l.68.19c-.01.1-.05.3-.1.58s-.15.66-.28,1.14Zm-4.05,5.17c.13,0,.28-.05.44-.14.16-.09.33-.23.51-.41.18-.18.37-.4.56-.67-.35-.73-.63-1.51-.85-2.32-.19.17-.37.38-.55.62-.18.25-.34.53-.46.85-.12.32-.18.63-.18.92,0,.37.05.66.14.85.1.19.23.29.39.29Zm1.17-3.93c.07.29.14.57.23.85s.17.53.26.74c.09.22.17.4.24.56.24-.39.48-.82.71-1.3.23-.48.43-.97.6-1.49-.38.01-.74.08-1.08.19-.35.11-.66.26-.95.45Z"/>
        <path class="cls-2" d="m637.25,48.72c0,.18.02.38.07.61.05.22.13.43.26.63.13.2.29.37.48.52s.42.27.67.37c.25.1.51.18.77.23s.49.09.7.12c-.03.04-.06.13-.11.26-.05.13-.1.29-.15.48-.53-.07-1.01-.19-1.43-.36-.42-.17-.77-.38-1.06-.65-.29-.26-.51-.58-.66-.94-.15-.36-.22-.75-.22-1.18,0-.45.09-.92.27-1.38.18-.46.43-.89.73-1.26.31-.38.6-.68.88-.9.28-.22.52-.39.71-.52-.96.08-1.96.18-3.01.29-1.05.11-1.78.2-2.19.26l-.07-.85c3.64-.28,6.09-.47,7.35-.57l.07.7-.67.04c-.53.21-.99.45-1.39.74s-.74.61-1.03.95-.52.72-.7,1.14-.27.84-.27,1.28Z"/>
        <path class="cls-2" d="m647.53,51.02c.46,0,.96-.04,1.5-.14s.95-.19,1.22-.29l.06.85c-.38.1-.82.19-1.32.25-.5.07-.96.1-1.35.1-2.07,0-3.1-.71-3.1-2.15,0-.28.06-.55.17-.82.12-.27.28-.52.48-.77.21-.25.45-.48.74-.69.28-.22.57-.41.86-.58-.09-.42-.19-.87-.32-1.35-.13-.48-.25-.91-.37-1.27-.12-.36-.22-.65-.31-.86l.75-.24c.15.47.3,1.03.48,1.68.17.65.31,1.22.41,1.72.61-.3,1.28-.56,2.01-.79.24-.07.4-.14.49-.21l.21.84c-.05,0-.12.02-.2.04-.08.02-.15.04-.21.05-.22.06-.45.13-.7.21s-.52.18-.81.3c-.29.12-.58.26-.88.41-.3.15-.61.34-.93.57-.32.23-.6.49-.83.8-.23.3-.34.61-.34.93,0,.17.02.33.07.47s.12.27.22.38.23.2.39.28.35.14.57.19c.22.05.43.08.63.08.2,0,.34.01.42.01Zm2.71-7.7c.16.15.34.34.53.58.2.24.36.46.5.66l-.44.35c-.13-.21-.28-.43-.47-.68-.19-.25-.36-.45-.52-.62l.4-.3Zm.89-.57c.17.14.36.33.56.58.2.25.36.47.48.65l-.42.32c-.11-.19-.26-.41-.46-.65s-.37-.45-.53-.61l.37-.29Z"/>
        <path class="cls-2" d="m657.82,43.96c.2,0,.45.03.73.08.28.05.57.15.88.3s.58.33.84.57c.26.23.48.5.65.81.18.31.3.63.37.96s.1.63.1.89c0,.29-.02.56-.06.8-.04.24-.09.47-.16.69s-.17.46-.3.7c-.13.25-.32.51-.55.79-.23.28-.56.54-.97.81-.41.26-.89.47-1.45.62-.15-.2-.27-.35-.36-.46s-.16-.18-.2-.21c.34-.05.67-.14.99-.26.33-.12.63-.29.91-.5.28-.21.52-.45.73-.73.21-.28.38-.61.51-1,.13-.38.2-.79.2-1.24,0-.41-.07-.79-.21-1.15-.14-.36-.33-.66-.56-.92-.24-.26-.51-.46-.82-.61s-.63-.24-.95-.27c-.05.4-.14.85-.25,1.35-.11.49-.27,1.03-.46,1.61-.19.58-.43,1.12-.69,1.63-.27.51-.56.92-.88,1.22-.32.3-.64.46-.96.46-.22,0-.43-.05-.61-.15-.19-.1-.34-.25-.47-.45-.13-.2-.23-.45-.3-.75-.07-.3-.1-.65-.1-1.03,0-.46.08-.93.23-1.4.15-.47.37-.91.67-1.33.29-.41.64-.76,1.03-1.03s.8-.47,1.21-.59c.42-.12.83-.18,1.26-.18Zm-2.9,6.18c.09,0,.18-.03.27-.08.1-.05.19-.12.29-.22.1-.09.21-.22.32-.38.12-.16.25-.37.4-.63.15-.26.31-.62.48-1.06.17-.44.34-.95.49-1.52s.25-1.12.31-1.65c-.24.02-.52.07-.83.17-.31.1-.61.25-.9.46-.29.21-.57.48-.82.8-.25.33-.45.71-.61,1.14-.16.44-.23.86-.23,1.26,0,.55.07.97.22,1.27.15.29.35.44.6.44Z"/>
        <path class="cls-2" d="m670.57,50.36l-.32.74c-.67-.56-1.47-1-2.42-1.34v.26c0,.64-.17,1.14-.52,1.5-.35.36-.83.54-1.46.54-.26,0-.5-.04-.74-.11-.24-.07-.45-.18-.63-.32-.18-.14-.33-.32-.43-.52-.11-.21-.16-.43-.16-.68,0-.18.03-.35.1-.53s.18-.34.34-.49c.16-.15.37-.27.64-.37.27-.1.6-.15.98-.15.29,0,.68.02,1.17.07,0-.31-.02-1.08-.05-2.33-.03-1.24-.04-2.03-.04-2.37,0-.45,0-.82,0-1.11l.79.09c-.02.07-.04.22-.05.43s-.02.37-.02.46l.02,1.45c.4-.02.85-.07,1.36-.14.5-.07.94-.15,1.31-.24l.09.76c-.19.04-.44.09-.74.14-.3.05-.64.1-1,.13-.37.04-.7.06-1,.08l.05,2.76c1.02.31,1.94.74,2.74,1.3Zm-4.68.98c.42,0,.74-.12.94-.35.2-.24.31-.61.31-1.12v-.23c-.44-.08-.83-.12-1.17-.12-.17,0-.34.02-.51.05-.17.03-.33.09-.47.18-.14.08-.24.19-.31.3s-.09.23-.09.34.02.22.06.34c.04.11.12.22.22.31.11.09.24.17.41.23s.37.09.61.09Z"/>
        <path class="cls-2" d="m676.62,52.2c-.14-.21-.33-.42-.56-.64.9-.33,1.59-.81,2.06-1.44.47-.63.7-1.41.7-2.34s-.38-1.45-1.15-1.45c-.02,0-.06,0-.11,0-.06,0-.16.02-.31.04-.15.02-.36.08-.62.16s-.52.18-.77.28c-.25.1-.51.21-.79.32s-.43.18-.46.2l-.29-.81c.2-.05.52-.15.96-.3.44-.15.74-.24.89-.29.15-.05.28-.09.39-.12.11-.03.23-.07.38-.1.14-.03.27-.06.39-.07.12-.01.21-.02.29-.02.28,0,.53.04.77.13s.44.22.62.4.31.41.41.68c.1.28.14.59.14.95,0,.54-.06,1.03-.19,1.47-.13.45-.31.85-.55,1.21-.24.36-.54.69-.91.98-.37.3-.79.55-1.28.75Zm2.05-7.88c-.23-.03-.57-.09-1.01-.19-.44-.09-.84-.19-1.19-.27-.35-.09-.63-.17-.82-.23l.22-.73c.35.14.83.28,1.46.42.62.14,1.12.22,1.49.25l-.15.75Z"/>
        <path class="cls-2" d="m684.05,50.22c.07-.45.22-1.06.44-1.84l.45.38c-.15.43-.27.92-.37,1.45-.1.54-.16,1.03-.17,1.5l-.62.2c-.12-.43-.23-.93-.3-1.49-.08-.56-.11-1.1-.11-1.64,0-.8.06-1.71.17-2.72.11-1.02.26-1.9.44-2.66l.72.17c-.2.7-.38,1.55-.52,2.54-.14.99-.21,1.89-.21,2.72,0,.46.03.92.1,1.39Zm4.83.33c.28,0,.62-.02,1-.07.38-.04.73-.1,1.03-.17v.76c-.83.14-1.53.21-2.09.21-.38,0-.7-.03-.96-.08-.26-.05-.48-.13-.66-.21-.18-.09-.33-.2-.46-.33-.13-.13-.22-.28-.29-.47-.07-.18-.1-.39-.1-.61,0-.17.04-.36.12-.59.08-.22.17-.41.29-.55l.63.23c-.12.12-.21.27-.28.45s-.1.34-.1.49c0,.13.02.25.07.35.05.1.12.19.23.28s.28.16.52.22c.24.06.59.09,1.05.09Zm.16-5.09c-.43,0-.88.02-1.34.07s-.88.12-1.24.21l-.05-.75c.37-.07.8-.13,1.3-.18s.94-.07,1.34-.07c.63,0,1.13.04,1.5.13l-.04.68c-.34-.07-.83-.1-1.46-.1Z"/>
        <path class="cls-2" d="m701.05,49.58c.28.37.46.59.53.66-.09,1.37-.43,2.06-1.02,2.06-.16,0-.32-.04-.49-.13-.17-.08-.35-.21-.52-.38s-.35-.38-.51-.65c-.17-.26-.33-.56-.48-.9-.25.29-.54.57-.86.84-.32.27-.67.5-1.04.7-.37.2-.74.36-1.1.47-.03-.05-.08-.13-.15-.23-.07-.1-.17-.22-.29-.36.64-.18,1.22-.45,1.75-.81.53-.36,1-.79,1.41-1.29-.42-1.16-.73-2.6-.92-4.31h-3.12v1.62h2.51c-.01.09-.02.17-.02.23,0,.87-.02,1.5-.05,1.87s-.08.66-.15.86c-.09.24-.25.43-.5.55-.25.13-.6.19-1.05.19-.02-.09-.11-.36-.26-.81.13.06.3.09.5.09.38,0,.63-.13.73-.4.05-.15.09-.38.11-.67.02-.29.03-.72.04-1.29h-1.86c-.01.52-.05,1.02-.11,1.5-.06.48-.14.92-.24,1.33-.1.41-.22.77-.36,1.09-.14.32-.29.58-.46.8l-.51-.58c.34-.41.6-1,.78-1.77.18-.77.27-1.69.27-2.76v-2.29l-.02-.24h3.71c-.05-.63-.09-1.14-.1-1.54-.01-.21-.02-.34-.03-.4.44.04.66.06.68.07,0,.01,0,.06,0,.13,0,.07,0,.14,0,.21.03.68.05,1.19.08,1.53h2.48c.32,0,.55,0,.69-.01v.71c-.14-.01-.37-.02-.69-.02h-2.42c.15,1.36.4,2.58.75,3.66.25-.38.47-.8.66-1.25s.34-.9.47-1.34l.61.37-.04.07c-.38,1.1-.85,2.06-1.44,2.88.24.58.5,1.03.78,1.35.28.32.53.48.75.48.03,0,.07-.01.12-.04s.1-.09.14-.18.08-.2.11-.32c.03-.13.06-.3.08-.52.02-.22.04-.49.04-.83Zm-.44-5.73l-.38.54c-.13-.14-.33-.32-.62-.56-.29-.23-.58-.43-.87-.61l.35-.47c.22.12.48.29.75.48.28.2.53.4.76.62Z"/>
        <path class="cls-2" d="m708.76,50.46c.29.22.61.42.95.6.34.18.67.33.99.45.32.11.6.2.84.26-.18.29-.3.49-.36.62-.79-.21-1.51-.52-2.16-.93s-1.22-.89-1.69-1.43-.86-1.11-1.16-1.72h-1.27v2.96c1.02-.21,1.77-.4,2.26-.55l-.02.68c-.29.09-.84.22-1.64.4-.81.18-1.6.35-2.39.5-.07,0-.19.04-.38.09l-.17-.71.48-.04c.32-.04.71-.12,1.18-.22v-3.1h-.85c-.37,0-.63,0-.79.01v-.65c.16.01.42.02.79.02h.87v-4.18l-.02-.41h5.36c.26,0,.45,0,.57-.01v.65c-.12,0-.32-.01-.57-.01h-4.68v.98h4.35c.24,0,.43,0,.54-.02v.61c-.12,0-.3-.01-.54-.01h-4.35v.87h4.35c.24,0,.43,0,.54-.01v.61c-.12-.01-.3-.02-.54-.02h-4.35v.97h5.69c.37,0,.63,0,.78-.02v.65c-.15,0-.41-.01-.78-.01h-3.72c.16.3.36.6.59.9.24.3.5.58.79.84.16-.1.35-.23.56-.37s.4-.29.57-.44c.17-.15.31-.27.42-.38.11-.11.18-.2.24-.27l.52.51-.1.07c-.19.18-.45.39-.78.65-.34.26-.64.48-.91.66Z"/>
        <path class="cls-2" d="m719.35,44.46c.69,0,1.25,0,1.67.02v.7c-.51-.04-1.05-.05-1.62-.05h-1.55c0,.55.01,1.32.01,2.32.09.34.14.7.14,1.06,0,.4-.06.78-.18,1.16-.12.37-.29.72-.52,1.04-.22.32-.5.6-.82.83-.32.23-.67.41-1.05.54-.21-.28-.4-.48-.56-.6.25-.07.48-.16.69-.25.21-.1.4-.2.56-.32.17-.12.32-.25.44-.39.12-.14.24-.3.35-.48s.19-.39.26-.62c-.11.09-.24.16-.39.21-.15.05-.29.08-.43.08-.2,0-.4-.05-.58-.16-.18-.11-.33-.25-.46-.42-.13-.17-.22-.37-.3-.6-.07-.23-.11-.44-.11-.64,0-.29.04-.56.11-.79.07-.23.17-.42.31-.58.13-.16.28-.27.45-.35.17-.08.34-.12.53-.12.17,0,.34.03.5.09.17.06.31.14.43.25l-.04-1.23c-.81.02-1.62.04-2.42.08-.8.04-1.48.07-2.05.11l-.04-.75,4.49-.11v-.44c0-.37,0-.72.03-1.04l.72.08c-.06.23-.09.45-.09.67v.73h1.5Zm-2.91,4.53c.24,0,.43-.1.57-.29.15-.19.23-.46.25-.79-.04-.26-.1-.48-.19-.66-.09-.18-.19-.31-.32-.41-.13-.09-.28-.14-.45-.14-.16,0-.3.05-.42.15-.12.1-.21.23-.28.39-.07.16-.1.35-.1.56,0,.18.04.37.11.56.08.19.19.34.34.46s.31.17.48.17Z"/>
        <path class="cls-2" d="m727.35,46.79c.36,0,.7.05,1,.16s.56.26.78.46c.22.2.39.45.5.73s.18.6.18.95c0,.32-.05.61-.14.9s-.22.54-.39.76-.36.42-.6.58c-.23.16-.49.29-.78.39-.28.09-.54.15-.77.17-.23.02-.38.03-.46.03-.28,0-.54-.03-.8-.1-.26-.07-.48-.17-.67-.31s-.34-.3-.45-.49-.16-.4-.16-.63c0-.2.05-.39.16-.58s.26-.34.46-.45c.2-.11.4-.16.6-.16s.4.04.61.1c.21.07.41.18.58.34.18.16.33.36.45.61.12.25.18.53.2.84.2-.07.39-.17.56-.3.17-.12.32-.27.45-.45.13-.17.23-.37.3-.58.07-.22.1-.45.1-.7,0-.55-.16-.97-.47-1.25s-.77-.43-1.37-.43c-.51,0-.96.08-1.36.23s-.72.33-.99.54-.47.41-.63.58c-.16.18-.29.34-.41.5l-.53-.56c.34-.32.94-.95,1.81-1.88.87-.93,1.65-1.79,2.34-2.58-.34.06-.72.11-1.16.17-.44.05-.82.09-1.14.12s-.59.04-.8.05l-.1-.8c.32.04.92.02,1.8-.06.88-.08,1.56-.16,2.05-.25.05-.01.09-.04.14-.08l.51.59c-.06.02-.13.07-.21.13-.21.2-.58.57-1.1,1.11-.52.54-1.16,1.21-1.92,2.02.54-.27,1.14-.41,1.79-.41Zm-2.13,3.6c0,.09.02.18.07.28s.14.19.26.28.28.16.48.21c.19.06.42.09.68.09l.36-.02c0-.09-.01-.22-.04-.36-.03-.15-.08-.3-.16-.45-.08-.15-.19-.28-.31-.39-.12-.1-.24-.17-.35-.2s-.2-.04-.26-.04c-.24,0-.42.06-.54.17-.12.11-.18.26-.18.43Z"/>
        <path class="cls-2" d="m736.76,45.31c.31,0,.57.16.77.48s.31.79.31,1.4c0,.68-.04,1.3-.12,1.86-.08.56-.2,1.04-.37,1.44s-.36.71-.6.92c-.24.21-.5.32-.8.32-.13,0-.28-.02-.46-.06-.17-.04-.37-.12-.58-.25-.02-.21-.04-.41-.07-.61-.03-.2-.06-.34-.08-.41.18.16.37.29.57.4.19.1.36.15.51.15s.3-.06.46-.18.29-.33.42-.62c.13-.29.22-.62.29-.98.06-.36.1-.7.12-1.01.02-.31.03-.59.03-.83,0-.45-.05-.78-.14-1.01s-.25-.34-.46-.34c-.07,0-.45.05-1.12.14-.24.79-.51,1.59-.81,2.4-.3.81-.58,1.47-.84,2-.25.52-.48.93-.67,1.23l-.69-.42c.38-.54.77-1.29,1.18-2.23.41-.94.77-1.89,1.07-2.85-.21.04-.57.1-1.07.18-.5.08-.81.13-.92.14l-.14-.84c.15,0,.4,0,.74-.03s.88-.09,1.61-.19c.19-.67.33-1.25.43-1.74.06-.32.09-.56.09-.71l.79.21c-.05.12-.09.24-.13.36-.05.26-.12.55-.2.87-.08.32-.16.63-.25.94.57-.07.94-.1,1.13-.1Zm2.35-.42c.42.45.78,1.01,1.1,1.69.32.68.55,1.43.69,2.23l-.68.36c-.07-.42-.16-.83-.28-1.23s-.25-.78-.41-1.12c-.15-.34-.32-.65-.5-.92s-.36-.5-.54-.68l.61-.34Z"/>
        <path class="cls-2" d="m750.6,49.83c.16.14.34.27.54.4,0,.55-.03.96-.08,1.24s-.15.48-.29.61c-.14.13-.39.19-.74.19-.2,0-.38,0-.53-.03-.15-.02-.26-.06-.34-.14-.12-.11-.18-.31-.18-.59,0-.08.01-.92.01-2.53h-.63c-.01.92-.16,1.65-.45,2.21-.28.55-.7.94-1.26,1.17l-.22-.39h-.38s-2.65-.01-2.65-.01v.46h-.61c.01-.13.02-.24.02-.33v-3.46l.04-.7c-.19.19-.4.37-.63.55l-.23-.64c.71-.55,1.3-1.21,1.75-1.99h-1.11c-.22,0-.39,0-.5.01v-.62c.11,0,.28.01.5.01h1.43c.16-.37.3-.75.41-1.12h-1.14c-.26.4-.56.75-.88,1.07-.01-.03-.05-.08-.1-.17-.05-.08-.14-.2-.26-.35.28-.23.54-.54.79-.92.25-.38.43-.76.53-1.14l.59.17-.06.1c-.07.19-.17.41-.29.66h2.96v.58h-1.58c-.04.14-.1.32-.18.56-.08.23-.15.42-.21.57h1.96s0,.61,0,.61h-.51s-1.73-.01-1.73-.01c-.26.49-.55.95-.88,1.38h1.13c.09-.13.17-.28.26-.45.09-.17.15-.28.18-.35.03-.07.05-.12.05-.14l.55.18-.06.07c-.11.23-.24.46-.4.69h1.26s0,.56,0,.56h-.42s-1-.01-1-.01v.85h1.25s0,.53,0,.53h-.41s-.84-.01-.84-.01v.84h1.25s0,.54,0,.54h-.41s-.84-.01-.84-.01v.9h1.02c.18,0,.32,0,.43-.01v.31c.23-.12.43-.26.6-.43.17-.17.31-.36.41-.59s.18-.48.24-.76c.05-.28.08-.6.09-.94h-.76l.02-.42v-5.08c0-.1,0-.24-.02-.42h3.41l-.02.42v5.08l.02.42h-.9v2.43c0,.14.03.22.1.24.08.01.21.02.39.02.22,0,.36-.07.42-.22.03-.08.06-.21.08-.4.02-.19.04-.6.04-1.23Zm-6.1-1.21v-.85h-1.09v.85h1.09Zm0,1.35v-.84h-1.09v.84h1.09Zm-1.09.53v.9h1.09v-.9h-1.09Zm6.48-6.83h-2.26v1.18h2.26v-1.18Zm0,2.86v-1.12h-2.26v1.12h2.26Zm-2.26.55v1.3h2.26v-1.3h-2.26Z"/>
        <path class="cls-2" d="m754.76,48.11v-.48c-.26.23-.55.45-.86.66-.31.21-.6.37-.88.5-.28.13-.52.23-.73.3-.01-.03-.04-.09-.09-.19-.05-.1-.12-.23-.21-.38.29-.09.59-.22.91-.38.31-.16.6-.33.86-.5-.04-.04-.12-.13-.25-.27-.13-.14-.27-.27-.43-.41l.36-.31c.24.18.49.42.75.69.19-.16.39-.33.58-.52-.11-.1-.23-.21-.37-.34-.14-.12-.26-.22-.37-.29l.31-.35c.26.17.51.37.77.62.05-.06.15-.18.3-.36.15-.18.29-.4.44-.64h-1.34c-.29.34-.61.65-.97.93s-.69.51-1.02.67l-.37-.53c.52-.23,1.01-.56,1.47-.98.46-.43.81-.89,1.06-1.38l.57.19-.06.09c-.06.12-.16.29-.31.51h1.2l.07-.1c.15.11.3.24.44.39l-.09.03c-.17.39-.4.77-.67,1.16-.28.38-.58.73-.92,1.06h2.83c.18,0,.33,0,.44-.01v.64h-.44s-2.55-.01-2.55-.01c-.19,0-.33,0-.44.01Zm.31,2.3l-.08.08c-.17.21-.36.42-.59.63-.23.21-.49.4-.77.58-.28.18-.56.32-.85.43-.05-.07-.13-.16-.23-.27s-.18-.19-.25-.25c.03,0,.1-.03.21-.07.11-.04.28-.12.52-.23.24-.11.52-.28.82-.5s.54-.45.72-.7l.5.31Zm-2.62-5.04c.01-.1.02-.19.02-.28v-1.36c0-.08,0-.17-.02-.27h3.64v-.66l-.02-.28c.2,0,.45.01.74.03-.01.09-.02.17-.02.25v.65h3.73c0,.06-.01.15-.01.27v1.64s-.65,0-.65,0v-.11c-.11.23-.28.51-.51.84s-.5.64-.81.94c.67.66,1.45,1.11,2.35,1.36-.11.26-.19.46-.24.62-.95-.31-1.8-.85-2.54-1.63-.74-.78-1.31-1.73-1.7-2.84l.56-.15c.26.84.65,1.56,1.15,2.18.17-.14.35-.32.54-.54s.35-.43.48-.63h-1.61s0-.56,0-.56h.35s1.52.01,1.52.01l.07-.08c.16.13.29.25.4.35v-1.08h-6.74v1.34h-.67Zm4.36,4.29v1.3l.02.65c0,.22-.06.39-.18.51-.12.12-.3.2-.53.25-.23.05-.54.08-.93.08l-.32-.73c.23.04.46.05.68.05.18,0,.32-.02.44-.06.12-.04.17-.13.17-.26v-1.79h-2.43c-.3,0-.51,0-.64.02v-.65c.13.01.35.02.64.02h5.36c.3,0,.51,0,.65-.02v.65c-.14-.01-.36-.02-.65-.02h-2.3Zm1.04.77l.48-.35c.14.15.33.33.59.53.25.2.55.39.9.57.35.18.66.31.96.38l-.45.53c-.4-.15-.83-.37-1.29-.68s-.86-.63-1.19-.97Z"/>
      </g>
      <path class="cls-1" d="m807.04,31.07h-235.61V0h235.61v31.07Zm-235.11-.5h234.61V.5h-234.61v30.07Z"/>
      <path class="cls-1" d="m807.04,81.61h-235.61V30.45h235.61v51.16Zm-235.11-.5h234.61V30.95h-234.61v50.16Z"/>
      <g>
        <path class="cls-2" d="m1120.53,19.44c-.54,0-1.06-.11-1.54-.32s-.88-.5-1.18-.86l.84-.81c.26.29.56.5.88.65s.66.22,1,.22c.31,0,.58-.05.81-.15.23-.1.4-.24.52-.41.12-.17.18-.36.18-.57,0-.25-.07-.46-.21-.62-.14-.17-.33-.3-.55-.39s-.52-.21-.9-.33c-.5-.17-.9-.33-1.21-.48-.31-.15-.58-.39-.8-.69s-.33-.71-.33-1.21c0-.41.11-.79.32-1.11.21-.33.51-.58.9-.76.39-.18.83-.27,1.33-.27.46,0,.9.09,1.33.28.43.18.79.43,1.1.74l-.84.81c-.23-.22-.49-.39-.76-.51s-.55-.19-.83-.19-.52.04-.72.13-.36.21-.47.36c-.11.15-.16.32-.16.5,0,.24.07.44.21.6.14.16.33.29.55.38.22.09.52.2.9.32.5.17.9.33,1.21.49.31.16.58.39.8.7.22.31.33.72.33,1.23,0,.44-.11.83-.33,1.17-.22.35-.54.62-.94.82-.41.2-.88.3-1.42.3Z"/>
        <path class="cls-2" d="m1126.69,19.33v-6.77h-2.34v-1.13h5.87v1.13h-2.35v6.77h-1.19Z"/>
        <path class="cls-2" d="m1131.81,19.33v-7.9h4.91v1.13h-3.73v2.11h2.96v1.13h-2.96v2.41h3.84v1.13h-5.02Z"/>
        <path class="cls-2" d="m1138.41,19.33v-7.9h2.54c.5,0,.95.11,1.35.34.41.23.72.53.95.92s.34.81.34,1.28-.12.89-.34,1.28-.55.69-.95.92c-.41.23-.86.34-1.35.34h-1.35v2.82h-1.19Zm2.6-3.95c.26,0,.49-.06.71-.19.22-.12.39-.3.51-.51.12-.22.19-.46.19-.71s-.06-.49-.19-.71c-.12-.22-.3-.39-.51-.51-.22-.12-.46-.19-.71-.19h-1.41v2.82h1.41Z"/>
        <path class="cls-2" d="m1154.2,19.44c-.4,0-.78-.06-1.15-.18-.37-.12-.68-.27-.94-.45s-.46-.37-.6-.57l.82-.8c.18.23.44.43.77.6.33.18.7.26,1.09.26.3,0,.57-.06.81-.18.24-.12.42-.28.55-.48s.19-.41.19-.64-.07-.43-.2-.63-.32-.36-.56-.48-.52-.18-.84-.18h-.76v-1.13h.76c.26,0,.5-.05.7-.15.2-.1.36-.24.47-.41.11-.17.16-.35.16-.55s-.05-.36-.16-.52c-.11-.16-.26-.29-.45-.38-.2-.1-.42-.15-.67-.15-.32,0-.63.07-.94.2-.31.14-.55.3-.72.5l-.79-.81c.29-.29.64-.54,1.07-.73.43-.19.89-.29,1.38-.29s.92.09,1.29.28.66.44.86.76c.2.32.3.66.3,1.04,0,.3-.07.57-.2.82-.13.24-.29.45-.48.6-.19.16-.37.27-.55.33.29.1.54.24.77.43.23.19.4.42.54.67s.2.53.2.82c0,.41-.12.8-.35,1.17s-.56.66-.98.88c-.42.22-.89.33-1.41.33Z"/>
      </g>
      <g>
        <path class="cls-2" d="m1038.51,44.2l.64.58-.09.1c-.24,1.06-.6,2.06-1.09,2.99s-1.06,1.73-1.72,2.39c-.66.66-1.37,1.17-2.12,1.52-.2-.25-.4-.44-.6-.58.29-.13.61-.31.97-.53.35-.22.73-.52,1.12-.88.4-.37.77-.79,1.11-1.27.34-.48.65-1.01.92-1.59s.49-1.21.64-1.88h-5.64s0-.81,0-.81c.21.02.44.02.67.02h5.07l.12-.05Z"/>
        <path class="cls-2" d="m1048.23,46.63c.2,0,.41,0,.62-.02v.73c-.22-.01-.43-.02-.62-.02h-1.33c.07,2.14.1,3.38.1,3.73,0,.4-.15.69-.45.86-.3.17-.79.26-1.49.26-.12-.32-.26-.61-.4-.85.11.03.27.06.46.08s.36.04.5.04c.22,0,.39-.06.51-.17.13-.11.19-.28.19-.5v-.06s0-.38-.02-1.05c0-.67,0-1.4,0-2.2-.4.78-.9,1.49-1.49,2.14-.59.65-1.27,1.22-2.04,1.72-.16-.22-.33-.42-.5-.62.32-.17.68-.41,1.08-.71.41-.31.83-.7,1.26-1.18s.8-.98,1.1-1.49h-2.44c-.2,0-.41,0-.62.02v-.73c.21.01.42.02.62.02h2.95l-.03-1.17c-.01-.34-.02-.52-.03-.56l.69.05s0,.08-.02.19c0,.1-.01.18-.01.23l.03,1.25h1.35Z"/>
        <path class="cls-2" d="m1054.33,46.51c-.28-.28-.63-.57-1.03-.87-.41-.3-.78-.56-1.13-.75l.41-.6c.38.21.76.45,1.16.74s.75.57,1.05.85l-.46.64Zm4.84-1.47l.45.79c-.15.29-.34.63-.57,1.01-.24.38-.53.77-.88,1.18-.35.41-.72.79-1.12,1.15s-.82.69-1.26,1.01c-.44.31-.86.58-1.27.8-.4.22-.76.41-1.06.54l-.31.17-.48-.8c.51-.18,1.03-.4,1.54-.68.51-.27,1-.58,1.46-.93.46-.34.89-.72,1.3-1.12.4-.4.77-.83,1.1-1.28.33-.45.58-.84.76-1.17.17-.33.29-.55.34-.67Z"/>
        <path class="cls-2" d="m1068.2,48.92c-.46-.34-.94-.67-1.43-.97-.49-.3-.88-.53-1.18-.68-.29-.15-.49-.24-.59-.29v4.12c0,.21,0,.48.02.84h-.76c.01-.34.02-.62.02-.84v-7.04c0-.38-.01-.68-.04-.89l.82.08s-.03.14-.04.29c-.01.15-.02.31-.02.48v2.18c.44.18.9.4,1.38.65.48.25.9.49,1.27.73.37.24.68.45.92.63l-.37.7Z"/>
        <path class="cls-2" d="m1072.39,46.38h6.06c.19,0,.42,0,.67-.02v.76c-.26-.01-.49-.02-.67-.02h-2.41c-.05,1.08-.3,2.03-.73,2.85-.43.82-1.07,1.48-1.92,1.97-.15-.15-.29-.27-.41-.36s-.19-.15-.23-.17c.32-.17.62-.36.89-.59.27-.22.5-.46.69-.73.19-.26.35-.54.48-.83.13-.29.24-.59.31-.89.08-.3.13-.57.15-.8.02-.23.04-.38.04-.46h-2.95c-.22,0-.44,0-.66.02v-.76c.21.02.43.02.66.02Zm4.81-1.88h-3.91c-.18,0-.4,0-.66.02v-.78c.25.01.47.02.66.02h3.91c.19,0,.41,0,.66-.02v.78c-.26-.01-.49-.02-.66-.02Zm1.18-1.76c.16.15.34.34.53.58.2.24.36.46.5.66l-.44.35c-.13-.21-.28-.43-.47-.68-.19-.25-.36-.45-.52-.62l.4-.3Zm.87-.59c.17.14.36.33.56.58.2.25.36.47.48.65l-.42.32c-.11-.19-.26-.41-.46-.66-.19-.25-.37-.45-.53-.61l.37-.29Z"/>
        <path class="cls-2" d="m1088.87,47.22v.81c-.24-.01-.48-.02-.72-.02h-5.67c-.24,0-.48,0-.72.02v-.81c.24.01.48.02.72.02h5.67c.26,0,.5,0,.72-.02Z"/>
        <path class="cls-2" d="m1097.72,44.81l.66.53c-.07.07-.11.12-.12.14-.17.48-.38.97-.61,1.46-.24.49-.5.96-.77,1.4.42.32.7.54.86.68l-.4.59c-.22-.21-.5-.44-.85-.7-.33.46-.7.91-1.11,1.33-.41.42-.82.79-1.22,1.09s-.77.55-1.1.74c-.06-.07-.16-.16-.3-.27-.14-.11-.25-.2-.34-.25.43-.21.86-.47,1.3-.79.44-.32.84-.68,1.21-1.07.37-.4.7-.79.99-1.19-.12-.08-.31-.21-.58-.37-.27-.17-.51-.31-.73-.43s-.39-.2-.51-.25l.36-.53c.61.29,1.22.63,1.84,1.03.23-.37.45-.78.66-1.21.21-.43.37-.83.5-1.2h-2.84c-.69,1.14-1.43,2.05-2.22,2.73-.29-.24-.5-.4-.62-.46.39-.34.76-.71,1.11-1.12.35-.41.69-.86,1.02-1.36.33-.5.62-1.04.89-1.62.08-.18.14-.34.18-.5l.77.24s-.07.12-.13.24c-.06.12-.1.2-.11.22-.13.28-.3.6-.5.96h2.6l.12-.07Z"/>
        <path class="cls-2" d="m1100.63,47.34c.31-.29.62-.65.94-1.08.31-.43.59-.86.83-1.28.24-.42.44-.83.6-1.21.16-.38.28-.73.36-1.03l.66.28-.04.07c-.32.87-.64,1.61-.96,2.22v6.61c0,.14,0,.31.02.52h-.75c.01-.21.02-.38.02-.52v-.28c0-.14,0-.67.02-1.58.01-.91.04-2.18.07-3.8-.2.32-.43.64-.68.97-.25.32-.49.59-.7.8-.06-.15-.18-.38-.38-.67Zm8.17,1.89c.32.24.54.4.66.48-.03.71-.11,1.23-.25,1.56s-.37.56-.68.7c-.31.14-.76.21-1.34.21-.45,0-.79-.02-1.01-.05-.23-.04-.4-.1-.51-.18-.35-.22-.52-.69-.52-1.41v-7.59c0-.07,0-.15,0-.22.3.01.54.03.71.05v.2s0,4,0,4c.56-.4,1.09-.83,1.58-1.27.49-.44.89-.88,1.19-1.29l.53.55-.13.1c-.32.4-.76.84-1.32,1.33s-1.18.98-1.86,1.46v2.7c0,.25.04.44.11.56.08.12.19.21.33.25.06.01.14.03.25.04.11.01.35.02.72.02.22,0,.44-.02.65-.06.22-.04.4-.13.55-.27.12-.14.2-.35.26-.62s.08-.69.09-1.26Z"/>
      </g>
      <path class="cls-1" d="m1254.71,31.07h-235.61V0h235.61v31.07Zm-235.11-.5h234.61V.5h-234.61v30.07Z"/>
      <path class="cls-1" d="m1254.71,81.61h-235.61V30.45h235.61v51.16Zm-235.11-.5h234.61V30.95h-234.61v50.16Z"/>
    </g>
  </g>
</svg>