<?xml version="1.0" encoding="UTF-8"?>
<svg id="_レイヤー_2" data-name="レイヤー 2" xmlns="http://www.w3.org/2000/svg" viewBox="0 0 92.29 29.99">
  <defs>
    <style>
      .cls-1 {
        fill: #f6ff00;
      }

      .cls-1, .cls-2 {
        stroke-width: 0px;
      }

      .cls-2 {
        fill: #070800;
      }
    </style>
  </defs>
  <g id="_レイヤー_1-2" data-name="レイヤー 1">
    <g>
      <rect class="cls-1" width="92.29" height="29.99"/>
      <g>
        <path class="cls-2" d="m12.41,20.54v-3.91l-3.88-7.12h1.39l3.1,5.77h.06l3.1-5.77h1.35l-3.89,7.12v3.91h-1.24Z"/>
        <path class="cls-2" d="m22.5,20.67c-.74,0-1.4-.19-1.99-.56-.59-.37-1.05-.88-1.38-1.52-.33-.64-.5-1.35-.5-2.14s.17-1.5.5-2.14c.33-.64.79-1.15,1.38-1.52.59-.37,1.25-.56,1.99-.56s1.4.19,1.99.56c.59.37,1.05.88,1.38,1.52.33.64.5,1.35.5,2.14s-.17,1.5-.5,2.14c-.33.64-.79,1.15-1.38,1.52-.59.37-1.25.56-1.99.56Zm0-1.13c.51,0,.97-.13,1.38-.4s.72-.64.95-1.1c.23-.47.34-1,.34-1.58s-.11-1.12-.34-1.58c-.23-.47-.54-.83-.95-1.1s-.86-.4-1.38-.4-.97.13-1.38.4-.72.64-.95,1.1c-.23.47-.34,1-.34,1.58s.11,1.12.34,1.58c.23.47.54.83.95,1.1s.86.4,1.38.4Z"/>
        <path class="cls-2" d="m31.6,20.67c-.6,0-1.13-.13-1.61-.39-.47-.26-.84-.64-1.1-1.14-.26-.5-.39-1.09-.39-1.77v-5.01h1.18v5.01c0,.44.09.82.27,1.15.18.33.43.58.75.76s.69.27,1.11.27c.45,0,.85-.1,1.21-.31.35-.21.63-.49.83-.85.2-.36.3-.78.3-1.25v-4.77h1.2v8.19h-1.2v-1.26h-.02c-.24.41-.59.74-1.04,1-.45.26-.95.39-1.48.39Z"/>
        <path class="cls-2" d="m40.77,20.54v-9.83h-3.42v-1.2h8.1v1.2h-3.44v9.83h-1.24Z"/>
        <path class="cls-2" d="m50.51,20.67c-.6,0-1.13-.13-1.61-.39-.47-.26-.84-.64-1.1-1.14-.26-.5-.39-1.09-.39-1.77v-5.01h1.18v5.01c0,.44.09.82.27,1.15.18.33.43.58.75.76s.69.27,1.11.27c.45,0,.85-.1,1.21-.31.35-.21.63-.49.83-.85.2-.36.3-.78.3-1.25v-4.77h1.2v8.19h-1.2v-1.26h-.02c-.24.41-.59.74-1.04,1-.45.26-.95.39-1.48.39Z"/>
        <path class="cls-2" d="m60.72,20.67c-.58,0-1.11-.13-1.58-.4-.48-.27-.86-.64-1.16-1.13h-.02v1.4h-1.2v-11.03h1.2v4.24h.02c.28-.46.66-.83,1.13-1.11.47-.28,1.01-.42,1.61-.42.7,0,1.34.19,1.9.56s1.01.88,1.33,1.53c.33.65.49,1.36.49,2.13s-.16,1.49-.49,2.13c-.33.65-.77,1.16-1.33,1.53-.56.37-1.19.56-1.9.56Zm-.13-1.13c.51,0,.97-.13,1.37-.4.4-.27.71-.64.94-1.1.23-.47.34-1,.34-1.58s-.11-1.12-.34-1.58c-.23-.47-.54-.83-.94-1.1-.4-.27-.86-.4-1.37-.4s-.96.13-1.35.4c-.4.27-.71.64-.94,1.1-.23.47-.34,1-.34,1.58s.11,1.12.34,1.58c.23.47.54.83.94,1.1.4.27.85.4,1.35.4Z"/>
        <path class="cls-2" d="m69.89,20.67c-.75,0-1.41-.19-1.99-.56-.58-.37-1.03-.88-1.35-1.52-.32-.64-.48-1.35-.48-2.14s.16-1.49.49-2.13c.33-.65.77-1.16,1.35-1.53.57-.37,1.21-.56,1.91-.56s1.32.17,1.87.51c.55.34.99.83,1.31,1.45.32.62.48,1.34.48,2.15,0,.11,0,.21-.02.31-.01.1-.02.2-.03.29h-6.13c.05.51.2.97.43,1.36.24.39.54.7.91.91.37.21.77.32,1.2.32.48,0,.92-.09,1.32-.28.4-.19.77-.47,1.12-.85l.79.76c-.36.46-.82.83-1.38,1.1-.56.27-1.16.41-1.79.41Zm2.33-4.77c-.06-.79-.31-1.41-.74-1.86-.43-.45-.99-.68-1.67-.68-.44,0-.84.1-1.19.31-.35.21-.64.5-.87.88s-.38.82-.46,1.34h4.93Z"/>
        <path class="cls-2" d="m80.92,17.87l-.74-.74,1.61-1.61h-6.67v-.98h6.67l-1.61-1.61.74-.74,2.84,2.84-2.84,2.84Z"/>
      </g>
    </g>
  </g>
</svg>